<svg width="1728" height="1952" viewBox="0 0 1728 1952" fill="none" xmlns="http://www.w3.org/2000/svg">
<mask id="mask0_1293_1674" style="mask-type:alpha" maskUnits="userSpaceOnUse" x="0" y="0" width="1728" height="1952">
<rect y="7.62939e-05" width="1728" height="1952" fill="#D9D9D9"/>
</mask>
<g mask="url(#mask0_1293_1674)">
</g>
<g clip-path="url(#clip0_1293_1674)">
<path d="M1006.94 124.416L1006.53 122.515L993.808 124.347L994.084 126.317L996.745 125.902C962.185 139.726 935.436 167.789 909.585 195.022C894.842 211.295 878.999 226.538 862.169 240.641C854.934 246.854 846.632 251.702 837.666 254.949C832.406 256.416 827.029 257.422 821.595 257.956C819.66 258.198 817.725 258.44 815.789 258.751C756.242 267.667 708.377 316.224 673.437 351.648C666.572 358.039 660.545 365.273 655.5 373.179C652.537 371.109 648.938 370.155 645.339 370.483C643.355 370.624 641.418 371.154 639.639 372.044C637.86 372.933 636.274 374.164 634.971 375.667C631.875 380.178 630.125 385.476 629.926 390.943C629.619 393.622 629.134 396.277 628.474 398.892C627.76 401.248 626.48 403.394 624.744 405.141C623.009 406.889 620.872 408.184 618.521 408.914C617.467 409.208 616.353 409.202 615.303 408.896C614.252 408.591 613.308 407.999 612.576 407.186L611.09 408.43C615.203 413.925 611.954 422.462 606.321 426.954C602.439 429.769 598.181 432.026 593.672 433.659C591.218 434.661 588.661 435.733 586.242 437.115C577.43 441.867 570.238 449.143 565.589 458.01C560.94 466.877 559.046 476.931 560.149 486.881C551.837 485.242 543.982 481.81 537.132 476.824L536.268 476.202L535.68 476.928C526.48 492.518 516.323 507.523 505.268 521.856L506.823 523.066C517.685 508.972 527.702 494.247 536.821 478.967C544.047 484.05 552.309 487.473 561.013 488.99L562.361 489.231L562.119 487.849C560.764 478.103 562.425 468.176 566.88 459.403C571.334 450.629 578.369 443.43 587.037 438.774C589.352 437.564 591.84 436.527 594.26 435.525C598.955 433.859 603.389 431.532 607.427 428.613C610.141 426.601 612.231 423.862 613.454 420.712C614.677 417.563 614.984 414.131 614.339 410.815C615.831 411.234 617.409 411.234 618.901 410.815C621.592 409.989 624.042 408.519 626.035 406.531C628.029 404.544 629.507 402.099 630.34 399.41C631.008 396.702 631.505 393.955 631.826 391.185C631.994 386.086 633.599 381.138 636.457 376.911C638.758 374.293 642 372.69 645.478 372.453C647.199 372.276 648.939 372.445 650.595 372.949C652.251 373.453 653.789 374.284 655.12 375.391L656.053 376.186L656.606 375.114C661.651 366.974 667.765 359.546 674.784 353.03C719.712 307.342 761.565 268.877 816.031 260.686C817.966 260.41 819.902 260.133 821.803 259.891C827.354 259.345 832.846 258.316 838.219 256.815C847.428 253.527 855.947 248.559 863.344 242.162C880.271 228.02 896.195 212.719 911.002 196.37C939.03 166.821 968.026 136.27 1006.94 124.416Z" fill="hsl(48 96.6% 76.7%)"/>
<path d="M886.879 559.526C857.071 547.95 829.206 531.891 804.246 511.903C798.785 507.548 788.832 501.189 782.196 506.442C780.643 499.341 780.016 492.07 780.33 484.808L780.33 484.358L779.916 484.358C778.913 484.013 777.358 483.46 775.319 482.7C758.039 476.479 706.199 457.54 691.649 465.592C690.949 466.012 690.3 466.51 689.714 467.078C691.323 461.172 690.771 454.885 688.159 449.349C686.95 447.457 685.269 445.913 683.281 444.871C681.293 443.828 679.067 443.323 676.823 443.405C675.331 443.397 673.867 443.807 672.596 444.589C671.326 445.371 670.3 446.493 669.635 447.829L668.667 450.006C667.492 452.736 665.902 456.503 664.347 456.918C664.347 456.918 663.759 456.918 663.034 456.296C661.627 454.387 659.842 452.789 657.791 451.6C655.74 450.411 653.466 449.656 651.11 449.384L650.73 449.384L640.742 465.316C639.672 458.455 636.713 452.028 632.196 446.754C627.679 441.48 621.783 437.568 615.168 435.456L614.892 435.456L603.66 442.748L600.204 434.316L599.098 434.765L603.072 444.511L615.168 436.597C621.728 438.704 627.548 442.645 631.939 447.955C636.33 453.265 639.109 459.721 639.948 466.56L639.948 468.219L651.318 450.144C653.471 450.463 655.538 451.212 657.397 452.346C659.255 453.48 660.866 454.976 662.135 456.745C662.409 457.118 662.778 457.411 663.203 457.593C663.629 457.776 664.095 457.841 664.554 457.782C666.732 457.402 668.252 453.807 669.738 450.351L670.706 448.209C671.285 447.075 672.166 446.124 673.251 445.459C674.337 444.794 675.585 444.442 676.858 444.442C678.904 444.347 680.939 444.792 682.759 445.733C684.578 446.673 686.119 448.075 687.226 449.798C690.682 455.708 689.507 462.931 687.951 470.534L689.092 470.742C689.278 469.839 689.668 468.99 690.231 468.259C690.793 467.529 691.515 466.936 692.341 466.526C706.372 458.715 758.004 477.516 775.008 483.806C776.805 484.462 778.222 484.981 779.224 485.326C778.953 492.887 779.673 500.451 781.367 507.825L781.609 508.827L782.369 508.101C788.314 502.295 798.232 508.654 803.624 512.974C828.686 533.023 856.654 549.14 886.568 560.771L886.879 559.526Z" fill="hsl(48 96.6% 76.7%)"/>
<path d="M801.204 99.3946L800.34 98.6343C789.78 109.959 775.987 117.754 760.838 120.96C751.538 122.571 742.11 123.323 732.672 123.206C720.645 123.448 708.203 123.69 696.626 127.665C693.103 128.601 689.984 130.664 687.744 133.54C686.43 135.751 685.704 138.261 685.636 140.832C684.702 152.652 689.679 163.745 694.518 174.459C696.384 178.606 698.285 182.857 699.84 187.073C705.68 203.075 703.538 223.189 689.748 229.098L687.571 230.031L689.956 230.239C695.278 230.92 700.201 233.423 703.886 237.323C707.572 241.223 709.793 246.279 710.173 251.631L710.173 252.772C710.03 257.973 708.344 263.014 705.328 267.254C702.313 271.494 698.105 274.742 693.239 276.584L692.651 276.791L692.928 277.379C698.63 289.544 699.84 299.497 697.11 307.826C696.052 310.63 694.407 313.176 692.285 315.292C690.163 317.408 687.613 319.045 684.806 320.095C682.854 320.896 680.747 321.247 678.641 321.122C676.534 320.996 674.484 320.397 672.641 319.369L671.984 320.337C679.339 325.893 684.286 334.055 685.808 343.146L686.983 342.974C685.636 334.885 681.665 327.465 675.682 321.857C678.878 322.615 682.227 322.386 685.29 321.201C688.235 320.082 690.904 318.342 693.116 316.1C695.329 313.858 697.032 311.165 698.112 308.206C701.049 299.739 699.771 289.647 694.137 277.448C699.303 275.395 703.722 271.819 706.808 267.196C709.895 262.573 711.502 257.12 711.417 251.562C711.07 246.252 708.993 241.201 705.504 237.182C702.016 233.163 697.307 230.396 692.098 229.306C705.369 222.014 706.717 202.28 701.015 186.659C699.46 182.408 697.559 178.122 695.658 174.01C690.889 163.4 685.981 152.41 686.845 140.936C686.882 138.503 687.549 136.122 688.781 134.024C690.898 131.387 693.805 129.497 697.075 128.632C708.48 124.9 720.749 124.658 732.672 124.416C742.18 124.536 751.679 123.772 761.045 122.135C773.352 119.542 784.822 113.938 794.43 105.823L789.799 111.56L790.698 112.32L801.204 99.3946Z" fill="hsl(48 96.6% 76.7%)"/>
<path d="M850.763 430.307L850.763 429.926C829.474 432.553 809.291 436.044 795.744 449.695L789.177 441.4L761.529 452.909C756.864 454.844 752.336 456.365 748.085 455.086C745.273 453.905 742.776 452.082 740.793 449.764C739.127 447.909 737.193 446.314 735.056 445.029L734.883 445.029C731.418 450.183 729.303 456.125 728.732 462.309L713.525 462.62L713.525 463.104L729.077 462.793L729.077 462.62C729.606 456.502 731.675 450.617 735.091 445.513C737.128 446.782 738.977 448.329 740.586 450.109C742.615 452.478 745.172 454.336 748.051 455.535C752.405 456.952 757.002 455.328 761.875 453.358L789.523 441.919L796.158 450.317L796.331 450.317C809.187 436.424 829.44 432.933 850.763 430.307Z" fill="hsl(48 96.6% 76.7%)"/>
<path d="M784.166 539.413L782.162 533.468L781.781 533.468L783.268 537.892C781.519 535.986 780.284 533.666 779.679 531.151C779.075 528.635 779.12 526.008 779.812 523.515L779.812 523.308L779.604 523.308C775.121 522.403 770.911 520.464 767.311 517.644C763.711 514.823 760.82 511.201 758.868 507.064C758.419 506.166 758.039 505.164 757.624 504.23C755.792 499.876 753.926 495.383 749.71 493.862L761.771 488.54L761.598 488.54L749.848 475.235L749.537 475.477L761.115 488.575L748.569 494.139L749.088 494.139C753.477 495.314 755.412 499.91 757.278 504.334L758.488 507.203C760.46 511.342 763.355 514.973 766.949 517.819C770.544 520.665 774.743 522.649 779.224 523.619C778.513 526.294 778.529 529.111 779.27 531.778C780.011 534.445 781.451 536.866 783.44 538.79L784.166 539.413Z" fill="hsl(48 96.6% 76.7%)"/>
<path d="M1005.7 306.513L1003.9 306.063C986.457 301.847 969.028 297.619 951.609 293.38C947.245 292.614 943.061 291.044 939.271 288.749C937.874 287.683 936.547 286.529 935.297 285.293C933.233 283.062 930.71 281.305 927.901 280.143C926.435 279.789 924.898 279.861 923.471 280.351C922.045 280.841 920.788 281.728 919.849 282.908C919.463 283.387 919.186 283.945 919.037 284.541C918.888 285.138 918.87 285.76 918.985 286.364C915.409 282.489 910.785 279.737 905.673 278.442C900.562 277.148 895.185 277.366 890.196 279.072L890.023 279.072C890.136 279.528 890.154 280.003 890.077 280.466C889.999 280.93 889.828 281.373 889.574 281.768C889.142 282.528 888.438 283.096 887.604 283.357C886.602 277.517 885.358 270.259 880.969 265.144C879.659 263.658 878.07 262.444 876.291 261.572C874.512 260.7 872.578 260.188 870.601 260.064C869.255 259.947 867.9 260.11 866.62 260.545C865.341 260.979 864.166 261.674 863.17 262.587L862.134 263.693C861.67 264.404 861.057 265.005 860.337 265.455C859.617 265.904 858.808 266.192 857.966 266.297C857.124 266.402 856.269 266.323 855.461 266.064C854.653 265.805 853.911 265.374 853.286 264.799C851.959 264.147 850.554 263.671 849.104 263.382C841.95 262.345 838.08 271.434 836.594 276.065C835.57 272.276 833.719 268.76 831.173 265.772C828.627 262.784 825.45 260.398 821.871 258.785L821.871 259.131C825.495 260.764 828.7 263.199 831.244 266.253C833.789 269.306 835.606 272.898 836.559 276.757L836.559 277.482L836.766 276.791C838.045 272.506 841.847 262.656 849.07 263.693C850.481 263.982 851.851 264.446 853.148 265.075C854.13 265.725 855.242 266.151 856.406 266.324C857.571 266.497 858.759 266.413 859.887 266.078C860.875 265.528 861.744 264.788 862.445 263.9C862.752 263.519 863.087 263.161 863.447 262.829C864.397 261.946 865.521 261.271 866.747 260.849C867.973 260.426 869.274 260.265 870.566 260.375C872.488 260.498 874.367 261.001 876.094 261.855C877.82 262.709 879.36 263.898 880.623 265.352C884.978 270.432 886.222 277.724 887.224 283.565L887.224 283.772L887.397 283.772C888.423 283.507 889.304 282.849 889.851 281.941C890.354 281.087 890.537 280.083 890.369 279.107C895.482 277.394 900.993 277.266 906.179 278.74C911.366 280.214 915.986 283.221 919.434 287.366L919.745 287.125C919.31 286.487 919.1 285.722 919.15 284.951C919.201 284.181 919.507 283.45 920.021 282.874C920.911 281.753 922.103 280.91 923.457 280.444C924.81 279.979 926.268 279.91 927.659 280.247C930.405 281.383 932.87 283.105 934.882 285.293C936.149 286.537 937.5 287.692 938.926 288.749C942.74 291.198 946.986 292.899 951.436 293.76L1001.93 305.994C997.954 305.994 993.98 305.787 990.005 305.649L990.005 306.063C994.602 306.063 999.164 306.305 1003.83 306.444L1005.7 306.513Z" fill="hsl(48 96.6% 76.7%)"/>
<path d="M860.544 123.483C856.258 123.034 853.632 126.49 850.694 130.188C848.757 133.458 845.7 135.914 842.089 137.1C839.297 137.289 836.513 136.626 834.105 135.199C832.234 134.233 830.231 133.546 828.161 133.16C823.178 133.082 818.358 134.94 814.717 138.344C796.749 151.856 782.484 169.687 773.245 190.184C764.003 185.969 753.555 185.208 743.8 188.041L742.141 188.559C736.197 190.357 729.492 192.43 725.552 188.11L725.345 187.868L725.345 188.145C723.067 193.784 720.375 199.248 717.293 204.492C713.461 200.601 709.126 197.242 704.402 194.504L704.194 194.849C708.966 197.605 713.338 201 717.189 204.941L717.189 205.114L717.189 204.906C720.273 199.665 722.987 194.214 725.31 188.594C729.423 192.776 736.162 190.737 742.072 188.905C742.66 188.905 743.178 188.594 743.731 188.421C753.458 185.592 763.88 186.378 773.072 190.633L773.245 190.633L773.245 190.46C782.423 169.986 796.615 152.156 814.51 138.62C818.346 135.717 822.908 132.849 827.677 133.505C829.711 133.886 831.679 134.561 833.518 135.51C836.001 136.97 838.869 137.645 841.743 137.445C845.464 136.216 848.61 133.673 850.59 130.291C853.39 126.835 856.016 123.379 860.094 123.725L860.544 123.483Z" fill="hsl(48 96.6% 76.7%)"/>
<path d="M323.378 527.247L307.584 503.781L305.96 504.887L320.959 526.971C313.117 534.192 303.406 539.065 292.931 541.037L291.963 541.037L291.963 542.005C294.065 553.725 299.268 564.667 307.031 573.696L273.508 589.801L274.441 590.803C275.787 592.59 276.647 594.694 276.938 596.912C277.229 599.13 276.942 601.385 276.103 603.458C275.265 605.532 273.904 607.353 272.153 608.745C270.403 610.137 268.321 611.052 266.112 611.401L265.213 611.401L265.213 612.334C264.937 621.838 263.451 631.269 260.79 640.397C251.61 640.517 242.497 638.826 233.971 635.42L233.315 635.144L232.831 635.697C224.907 645.483 220.97 657.9 221.806 670.464C221.806 672.123 222.117 673.92 222.325 675.475C223.364 680.388 223.174 685.48 221.772 690.302C220.975 692.034 219.751 693.535 218.216 694.665C216.681 695.796 214.884 696.518 212.993 696.764C211.941 696.922 210.865 696.783 209.888 696.361C208.911 695.94 208.071 695.254 207.464 694.38L206.185 692.444L205.667 694.691C193.65 746.437 172.855 795.742 144.184 840.465C140.175 846.72 131.397 856.086 123.898 851.697L122.895 853.356L133.263 859.473L126.04 874.126L112.597 874.368L112.597 875.509C115.534 891.406 108.207 905.921 100.431 921.301C96.3901 928.815 92.9242 936.625 90.0634 944.663C83.497 965.019 85.7434 986.723 87.9207 1007.74C89.6141 1023.91 91.3767 1040.64 89.0957 1056.67C86.089 1077.86 76.1703 1097.8 66.5626 1117.05C55.1924 1139.89 43.442 1163.5 43.3037 1189.21C43.4949 1196.87 44.1412 1204.51 45.2391 1212.09C47.0708 1226.22 48.6951 1239.74 44.3751 1252.45L43.6839 1254.46L58.3028 1248.79L57.577 1246.96L46.8634 1251.11C50.6305 1238.42 48.8679 1224.91 47.209 1211.85C46.07 1204.35 45.4235 1196.79 45.2737 1189.21C45.2737 1163.95 57.0586 1140.55 68.3252 1117.91C78.002 1098.52 87.9898 1078.44 91.0311 1056.95C93.3466 1040.67 91.5841 1023.81 89.8906 1007.53C87.7133 986.792 85.4669 965.226 91.9297 945.32C94.7961 937.373 98.2621 929.656 102.298 922.234C109.659 907.58 117.331 892.443 114.843 876.338L127.388 876.096L135.959 858.816L129.324 854.842C135.683 854.254 141.973 847.93 146.12 841.571C174.564 797.211 195.294 748.355 207.429 697.075C208.264 697.763 209.233 698.268 210.275 698.56C211.316 698.851 212.407 698.923 213.477 698.769C215.723 698.5 217.859 697.651 219.677 696.306C221.495 694.96 222.931 693.165 223.845 691.096C225.403 685.974 225.641 680.541 224.536 675.303L223.741 670.464C222.91 658.657 226.508 646.964 233.833 637.667C242.631 641.117 252.034 642.763 261.481 642.505L262.207 642.505L262.414 641.814C265.154 632.589 266.722 623.056 267.08 613.44C269.46 612.939 271.685 611.869 273.563 610.323C275.442 608.777 276.919 606.8 277.87 604.56C278.82 602.32 279.215 599.884 279.021 597.459C278.827 595.034 278.05 592.691 276.757 590.63L310.28 574.526L309.381 573.523C301.64 564.872 296.375 554.295 294.14 542.903C304.91 540.708 314.848 535.535 322.825 527.973L323.378 527.247Z" fill="hsl(48 96.6% 76.7%)"/>
<path d="M691.2 1103.12L674.438 1094.31L674.093 1094.96C642.635 1079.46 612.441 1061.51 583.788 1041.29C578.811 1037.84 573.178 1033.79 566.715 1033.45C565.564 1033.38 564.41 1033.38 563.259 1033.45C560.933 1033.77 558.564 1033.53 556.347 1032.76C551.232 1030.44 551.232 1024.36 551.232 1017.96C551.232 1011.57 551.232 1005.8 547.119 1001.96L547.119 1001.79L546.912 1001.79C542.258 1001.72 537.688 1003.03 533.779 1005.56L531.256 992.045L530.669 992.045C523.158 993.752 515.36 993.747 507.852 992.03C500.343 990.313 493.318 986.928 487.296 982.126C488.483 979.683 489.145 977.019 489.241 974.305C489.336 971.591 488.862 968.887 487.849 966.367C486.184 961.748 482.857 957.916 478.518 955.619L496.938 953.269L496.938 952.958C498.056 948.893 498.167 944.617 497.259 940.501C496.351 936.385 494.454 932.552 491.73 929.334C489.006 926.117 485.539 923.613 481.629 922.038C477.719 920.463 473.483 919.866 469.29 920.298C469.234 917.622 468.144 915.07 466.249 913.179C461.971 909.183 456.309 907.002 450.455 907.096C448.174 907.096 445.824 907.096 443.543 907.373C437.391 907.753 431.067 908.168 425.745 905.299C417.07 900.634 414.789 889.678 412.612 879.103C410.262 867.733 407.843 856.017 397.302 852.457L396.991 852.457L396.749 852.63C393.921 854.545 390.74 855.876 387.391 856.546C384.042 857.217 380.593 857.212 377.246 856.533C373.899 855.854 370.721 854.514 367.898 852.592C365.076 850.669 362.665 848.203 360.806 845.338L360.184 844.232L354.828 859.265C339.759 843.713 326.316 828.161 325.417 808.773C325.223 808.421 324.945 808.124 324.607 807.906C324.269 807.689 323.882 807.559 323.482 807.529C321.926 807.529 320.648 809.568 319.127 811.918C318.149 813.468 316.989 814.895 315.671 816.169C313.286 818.243 309.381 816.826 306.651 815.616L278.657 803.002C280.038 801.289 281 799.277 281.466 797.127C281.933 794.977 281.891 792.747 281.344 790.616C280.797 788.485 279.76 786.511 278.315 784.852C276.871 783.192 275.059 781.892 273.024 781.056C261.735 779.86 251.031 775.432 242.197 768.303C246.193 761.587 251.464 755.716 257.714 751.023L258.198 750.678L257.852 750.229C254.861 745.795 253.294 740.553 253.362 735.205C253.43 729.856 255.129 724.656 258.232 720.3L258.993 719.263L257.714 719.263C247.346 719.954 238.464 720.196 231.137 715.461C228.962 713.948 227.163 711.955 225.88 709.636C224.598 707.317 223.866 704.734 223.742 702.086C223.607 700.368 223.904 698.644 224.604 697.069C225.304 695.494 226.385 694.118 227.75 693.066L228.165 692.755L227.923 692.306C227.262 691.343 226.273 690.654 225.141 690.368C224.009 690.082 222.811 690.218 221.772 690.751C220.629 691.06 219.643 691.784 219.004 692.78C218.365 693.777 218.12 694.975 218.316 696.142L219.456 695.831C219.3 694.958 219.486 694.059 219.975 693.319C220.464 692.579 221.219 692.056 222.083 691.857C222.787 691.488 223.59 691.35 224.377 691.462C225.165 691.573 225.897 691.929 226.472 692.479C225.099 693.665 224.02 695.153 223.318 696.825C222.617 698.498 222.312 700.311 222.428 702.121C222.55 704.96 223.332 707.731 224.712 710.214C226.092 712.698 228.031 714.826 230.377 716.429C238.188 721.509 248.521 721.06 256.435 720.507C253.584 724.958 252.069 730.134 252.069 735.42C252.069 740.706 253.584 745.881 256.435 750.332C250.102 755.169 244.782 761.205 240.78 768.096L240.538 768.511L240.918 768.822C249.966 776.261 260.996 780.886 272.644 782.127C274.518 782.931 276.175 784.167 277.48 785.734C278.785 787.301 279.701 789.155 280.152 791.143C280.604 793.132 280.579 795.199 280.079 797.176C279.579 799.153 278.618 800.983 277.275 802.518L276.653 803.14L306.202 816.446C309.208 817.793 313.563 819.314 316.57 816.791C317.905 815.444 319.066 813.935 320.026 812.298C321.201 810.501 322.514 808.497 323.482 808.462C323.654 808.494 323.818 808.563 323.961 808.665C324.104 808.766 324.224 808.897 324.311 809.05C325.348 828.956 339.276 844.888 354.689 860.89L355.346 861.581L360.53 847.1C364.622 852.779 370.767 856.638 377.659 857.858C384.552 859.078 391.648 857.562 397.44 853.632C407.117 857.088 409.329 867.836 411.713 879.276C413.96 890.127 416.275 901.325 425.537 906.267C431.136 909.308 437.668 908.894 443.958 908.479C446.204 908.479 448.52 908.168 450.87 908.202C456.404 908.116 461.761 910.157 465.834 913.905C466.729 914.814 467.429 915.895 467.893 917.084C468.356 918.272 468.573 919.542 468.53 920.817L468.53 921.577L469.29 921.577C473.293 921.056 477.362 921.524 481.141 922.939C484.921 924.354 488.297 926.673 490.974 929.694C493.65 932.715 495.546 936.346 496.495 940.268C497.445 944.191 497.419 948.287 496.42 952.197L474.129 955.031L476.479 955.861C478.931 956.808 481.148 958.274 482.98 960.159C484.811 962.044 486.213 964.303 487.089 966.782C488.086 969.215 488.537 971.838 488.412 974.465C488.287 977.092 487.587 979.66 486.363 981.988L486.121 982.403L486.501 982.714C492.534 987.664 499.596 991.204 507.171 993.076C514.747 994.947 522.645 995.103 530.289 993.531L532.915 1007.6L533.676 1007.08C537.485 1004.45 542.005 1003.04 546.636 1003.04C550.092 1006.49 550.092 1012.37 550.092 1018.03C550.092 1024.53 550.092 1031.27 555.898 1033.9C558.285 1034.76 560.847 1035.04 563.363 1034.69C564.514 1034.62 565.668 1034.62 566.819 1034.69C572.901 1035 578.396 1038.91 583.269 1042.33C617.123 1066.25 653.128 1086.97 690.82 1104.23L691.2 1103.12Z" fill="hsl(48 96.6% 76.7%)"/>
<path d="M191.739 748.224L191.324 747.567C186.671 750.547 181.418 752.462 175.939 753.173C170.46 753.884 164.891 753.374 159.632 751.68L158.423 751.265L159.218 752.302C162.199 756.101 164.087 760.642 164.678 765.435C161.436 769.02 157.557 771.973 153.239 774.144C151.076 775.147 148.679 775.538 146.309 775.276C143.94 775.014 141.687 774.109 139.795 772.658L139.38 772.278L139.173 772.831C136.857 779.017 134.68 785.307 132.676 791.597C118.299 790.456 103.403 790.076 92.7587 798.509C83.151 806.112 80.559 818.104 79.8678 824.809C68.5839 825.203 57.872 829.873 49.9043 837.873L50.4573 838.426C58.3788 830.489 69.0393 825.889 80.248 825.569L80.5936 825.569L80.5936 825.224C81.2157 818.726 83.6694 806.665 93.208 799.131C103.576 790.837 118.575 791.286 132.883 792.461L133.194 792.461L133.194 792.184C135.164 785.998 137.307 779.777 139.553 773.66C141.543 775.068 143.87 775.925 146.297 776.143C148.725 776.362 151.168 775.934 153.377 774.904C157.83 772.696 161.837 769.685 165.196 766.022L165.196 765.85C164.674 761.25 162.985 756.86 160.289 753.097C165.572 754.606 171.119 754.951 176.548 754.11C181.977 753.269 187.16 751.261 191.739 748.224Z" fill="hsl(48 96.6% 76.7%)"/>
<path d="M446.757 910.345L445.824 910.345L445.513 923.512L424.259 921.439L424.259 921.854C424.589 926.747 426.095 931.489 428.648 935.678C429.615 937.613 430.618 939.617 431.412 941.622C432.282 943.72 432.73 945.969 432.73 948.24C432.73 950.511 432.282 952.76 431.412 954.858C430.949 955.864 430.268 956.754 429.42 957.465C428.571 958.176 427.576 958.69 426.505 958.971C424.913 959.315 423.294 959.523 421.667 959.593C417.727 959.835 413.649 960.111 413.476 963.879L413.476 964.224L413.752 964.224C418.18 966.167 422.07 969.155 425.088 972.933C423.414 973.616 421.909 974.657 420.68 975.982C419.45 977.307 418.525 978.885 417.969 980.606C416.913 983.472 416.913 986.621 417.969 989.487C415.938 987.453 413.31 986.121 410.469 985.686C409.356 985.62 408.243 985.825 407.226 986.282C406.209 986.739 405.318 987.436 404.628 988.312C404.149 988.897 403.825 989.593 403.686 990.336C403.547 991.079 403.598 991.845 403.834 992.563C404.265 993.561 404.887 994.465 405.665 995.224L406.184 995.812C408.185 998.285 409.373 1001.32 409.583 1004.49C409.793 1007.66 409.016 1010.83 407.359 1013.54L405.976 1015.58C403.592 1019.04 400.896 1022.8 403.35 1025.95C404.814 1027.46 406.779 1028.4 408.879 1028.57C409.536 1028.67 410.183 1028.82 410.815 1029.02C418.729 1031.24 422.703 1040.22 422.876 1056.5C423.097 1076.61 425.074 1096.66 428.786 1116.43L429.546 1116.43C425.852 1096.71 423.875 1076.7 423.636 1056.64C423.636 1039.98 419.351 1030.72 411.022 1028.4C410.365 1028.19 409.709 1028.06 409.052 1027.92C407.138 1027.8 405.333 1026.99 403.972 1025.64C401.864 1022.84 404.283 1019.42 406.598 1016.1L408.015 1014.03C409.757 1011.17 410.572 1007.84 410.349 1004.5C410.126 1001.16 408.877 997.966 406.771 995.363L406.253 994.775C405.545 994.08 404.971 993.26 404.559 992.356C404.384 991.767 404.355 991.145 404.476 990.542C404.596 989.94 404.862 989.376 405.251 988.9C405.866 988.133 406.652 987.521 407.546 987.113C408.44 986.705 409.418 986.512 410.4 986.55C413.784 987.258 416.843 989.055 419.109 991.665L421.736 994.084L419.697 991.146C418.794 989.625 418.234 987.925 418.056 986.166C417.878 984.406 418.085 982.628 418.664 980.957C419.243 979.285 420.18 977.76 421.409 976.488C422.637 975.216 424.129 974.227 425.779 973.59L426.332 973.59L425.987 973.141C422.918 969.107 418.875 965.92 414.236 963.879C414.547 961.045 418.038 960.803 421.701 960.423C423.376 960.379 425.043 960.171 426.678 959.8C427.85 959.491 428.941 958.929 429.872 958.152C430.804 957.376 431.553 956.405 432.069 955.308C432.978 953.117 433.446 950.768 433.446 948.396C433.446 946.024 432.978 943.675 432.069 941.484C431.242 939.432 430.307 937.424 429.27 935.47C426.842 931.497 425.374 927.012 424.984 922.372L446.273 924.446L446.757 910.345Z" fill="hsl(48 96.6% 76.7%)"/>
<path d="M554.411 747.878L554.411 747.118C545.115 748.293 539.24 755.482 532.984 763.085C529.147 768.315 524.477 772.88 519.16 776.598C513.128 779.778 506.55 781.794 499.772 782.542C494.286 783.271 488.904 784.64 483.736 786.62C477.866 789.491 472.432 793.179 467.597 797.576C462.721 802.011 457.226 805.713 451.284 808.566C449.211 809.43 446.895 810.19 444.683 810.916C436.907 813.508 428.89 816.169 427.092 823.772C426.789 825.157 426.639 826.571 426.643 827.989C426.632 829.286 426.516 830.58 426.298 831.859C423.844 843.299 406.875 843.61 399.686 843.195L399.41 843.195L399.41 843.471C398.712 845.605 398.726 847.907 399.449 850.033C400.172 852.158 401.565 853.991 403.419 855.256L403.834 854.6C402.18 853.451 400.928 851.813 400.252 849.917C399.577 848.02 399.512 845.96 400.067 844.024C407.601 844.405 424.639 844.024 427.162 831.998C427.391 830.685 427.518 829.356 427.542 828.023C427.541 826.653 427.68 825.287 427.956 823.945C429.65 816.757 437.46 814.165 445.029 811.676C447.275 810.95 449.591 810.156 451.665 809.292C457.708 806.43 463.288 802.679 468.219 798.163C473.006 793.841 478.368 790.201 484.151 787.346C489.254 785.393 494.565 784.037 499.979 783.302C506.872 782.563 513.559 780.51 519.679 777.254C525.009 773.43 529.678 768.76 533.503 763.43C539.62 756.104 545.426 749.053 554.411 747.878Z" fill="hsl(48 96.6% 76.7%)"/>
<path d="M120.545 1175.52C120.535 1173.33 119.9 1171.18 118.714 1169.34C118.201 1163.94 118.259 1158.51 118.886 1153.13C118.886 1150.85 119.267 1148.5 119.37 1146.22C119.647 1139.96 119.094 1124.86 108.242 1119.12C106.306 1118.18 104.28 1117.44 102.194 1116.91C100.513 1116.45 98.8621 1115.88 97.2518 1115.22C95.4556 1114.59 93.8859 1113.44 92.7415 1111.92C91.5971 1110.41 90.9296 1108.58 90.8237 1106.68L96.5952 1085.36C96.9394 1084.26 97.6788 1083.34 98.6688 1082.76C99.1872 1082.97 99.7401 1083.15 100.259 1083.32L100.604 1083.32L100.604 1082.97C100.562 1082.71 100.426 1082.48 100.222 1082.31C100.018 1082.15 99.7607 1082.06 99.4982 1082.07C99.2471 1082.08 99.0003 1082.14 98.7725 1082.25C93.9865 1080.54 89.4438 1078.22 85.2595 1075.33L85.0176 1075.65C89.1354 1078.51 93.6079 1080.84 98.3232 1082.56C97.3691 1083.19 96.6613 1084.13 96.3187 1085.22L90.5472 1106.58L90.5472 1107.16C90.7967 1109.04 91.5532 1110.81 92.7348 1112.28C93.9164 1113.75 95.4783 1114.88 97.2518 1115.53C98.8732 1116.21 100.535 1116.78 102.228 1117.26C104.289 1117.78 106.292 1118.51 108.207 1119.43C118.852 1125.07 119.37 1140.17 119.094 1146.15C119.094 1148.43 118.817 1150.78 118.644 1153.06C117.988 1161.01 117.331 1169.23 120.303 1176.66L120.58 1177.39L120.58 1176.6L120.545 1175.52ZM118.748 1170.17C119.69 1171.88 120.166 1173.81 120.131 1175.77C119.484 1173.95 119.021 1172.07 118.748 1170.17ZM99.1872 1082.63C99.292 1082.62 99.3969 1082.64 99.4931 1082.68C99.5893 1082.72 99.674 1082.79 99.7401 1082.87C99.6365 1082.8 99.4291 1082.7 99.1872 1082.63Z" fill="hsl(48 96.6% 76.7%)"/>
<path d="M88.3357 1018.83C88.2828 1018.41 88.1068 1018.01 87.8301 1017.7C87.5533 1017.38 87.1882 1017.14 86.7805 1017.03C86.3312 1017.03 85.9856 1017.03 85.8128 1017.03C85.64 1017.03 85.8128 1017.48 86.0202 1017.79L86.3312 1017.52C86.1584 1017.34 86.1584 1017.24 86.1584 1017.24C86.4789 1017.27 86.7874 1017.37 87.057 1017.55C87.2989 1017.66 87.5091 1017.82 87.6666 1018.04C87.8242 1018.25 87.9238 1018.5 87.9555 1018.76C87.6607 1021.78 86.6347 1024.67 84.9665 1027.2C83.2983 1029.73 81.0383 1031.82 78.3824 1033.28C76.7707 1034.21 74.9406 1034.7 73.0775 1034.7C71.2143 1034.7 69.3843 1034.21 67.7725 1033.28L67.4615 1033.07L69.2931 1048.52C66.8916 1049.84 64.7583 1051.6 63.0032 1053.7L28.4432 1090.68L26.6807 1092.82L26.9571 1093.06L63.2797 1054.08C65.0127 1051.95 67.1654 1050.2 69.6042 1048.93L67.8416 1033.97C69.4829 1034.84 71.3204 1035.27 73.1782 1035.23C75.036 1035.19 76.8517 1034.67 78.4515 1033.72C81.162 1032.23 83.4686 1030.1 85.1725 1027.52C86.8764 1024.94 87.9264 1021.98 88.232 1018.9L88.3357 1018.83Z" fill="hsl(48 96.6% 76.7%)"/>
<path d="M563.674 816.791L561.842 815.962C555.385 813.738 548.521 812.948 541.728 813.646C532.57 813.923 523.964 814.165 518.227 807.944C517.64 807.287 517.052 806.527 516.499 805.801C515.569 803.814 513.929 802.247 511.901 801.409C509.873 800.571 507.605 800.523 505.544 801.274L482.492 806.112L477.239 794.569L466.871 797.507L467.078 798.267L476.721 795.537L481.974 807.011L505.613 802.069C507.193 801.598 508.862 801.503 510.486 801.792C512.711 802.655 514.584 804.236 515.808 806.285C516.361 807.011 516.949 807.771 517.571 808.462C523.549 814.959 532.362 814.718 541.763 814.441C547.664 813.923 553.611 814.402 559.354 815.858L556.312 815.858L556.312 816.618L563.674 816.791Z" fill="hsl(48 96.6% 76.7%)"/>
<path d="M1497.14 804.419L1481.28 791.804L1480.03 793.359L1483.07 795.779L1396.67 755.896C1376.8 746.738 1356.76 736.232 1349.15 717.466L1348.39 715.53C1347.48 712.283 1345.75 709.322 1343.38 706.925C1338.75 702.916 1332.01 703.78 1325.44 705.266L1269.94 717.984L1270.67 692.721L1268.73 696.177C1264.93 702.639 1255.32 703.089 1248 700.842C1245.58 700.117 1243.16 699.149 1240.81 698.181C1235.69 695.776 1230.17 694.357 1224.53 693.999C1222.65 694.038 1220.78 694.199 1218.93 694.483C1216.65 694.855 1214.33 694.983 1212.02 694.863C1209.39 694.413 1206.9 693.341 1204.77 691.737C1202.63 690.133 1200.91 688.043 1199.74 685.641C1198.58 683.239 1198 680.593 1198.06 677.924C1198.12 675.254 1198.82 672.638 1200.1 670.291L1200.72 669.358L1199.72 668.874C1198.22 668.228 1196.58 667.995 1194.96 668.202C1193.34 668.409 1191.81 669.047 1190.52 670.049C1188.74 671.291 1187.43 673.091 1186.79 675.164L1171.58 649.728L1157.17 685.912L1120.19 690.82C1114.39 691.58 1106.54 690.232 1103.43 686.673C1102.82 686.011 1102.39 685.198 1102.2 684.317C1102 683.436 1102.05 682.52 1102.33 681.662L1100.49 681.005C1097.76 686.681 1093.77 691.664 1088.83 695.578C1083.89 699.493 1078.13 702.238 1071.98 703.607L1074.44 685.048L1073.99 684.703C1066.76 679.45 1059.64 674.784 1051.52 675.372C1048.98 675.665 1046.55 676.594 1044.46 678.074C1042.37 679.554 1040.69 681.536 1039.56 683.839C1038.93 685.062 1038.56 686.402 1038.47 687.776C1038.38 689.15 1038.58 690.528 1039.05 691.822L1016.44 687.882L1014.2 708.998L967.679 700.497C962.15 699.46 954.236 700.67 951.021 704.437C950.299 705.26 949.819 706.268 949.636 707.348C949.453 708.428 949.574 709.538 949.985 710.554L951.816 709.897C951.525 709.206 951.436 708.446 951.558 707.706C951.68 706.966 952.009 706.276 952.508 705.715C955.169 702.605 962.323 701.499 967.299 702.259L1016.06 711.418L1018.31 690.302L1043.16 694.587L1041.78 692.652C1041.02 691.495 1040.59 690.154 1040.54 688.772C1040.48 687.39 1040.8 686.02 1041.47 684.806C1042.43 682.8 1043.88 681.071 1045.7 679.783C1047.51 678.495 1049.62 677.691 1051.83 677.445C1059.13 676.892 1065.66 681.143 1072.57 686.051L1069.91 706.165L1071.22 705.923C1077.3 704.777 1083.07 702.356 1088.15 698.817C1093.22 695.278 1097.49 690.703 1100.67 685.394C1100.99 686.374 1101.51 687.279 1102.19 688.055C1105.85 692.271 1114.46 693.688 1120.68 692.859L1158.69 687.813L1172.07 654.221L1189.07 682.767L1188.45 677.998C1188.33 676.727 1188.56 675.447 1189.12 674.3C1189.68 673.154 1190.55 672.185 1191.63 671.501C1192.49 670.826 1193.5 670.352 1194.57 670.113C1195.64 669.874 1196.75 669.876 1197.81 670.118C1196.54 672.635 1195.87 675.418 1195.87 678.24C1195.87 681.063 1196.54 683.845 1197.81 686.362C1199.03 689.131 1200.95 691.54 1203.37 693.356C1205.79 695.172 1208.64 696.334 1211.64 696.73C1214.04 696.853 1216.45 696.714 1218.83 696.315C1220.6 696.062 1222.39 695.912 1224.18 695.866C1229.58 696.218 1234.85 697.59 1239.74 699.909C1242.12 700.877 1244.57 701.845 1247.1 702.639C1254.35 704.886 1263.17 704.609 1268.18 699.564L1267.59 720.472L1325.58 707.201C1331.63 705.819 1337.82 705.024 1341.79 708.446C1343.9 710.639 1345.43 713.323 1346.25 716.256L1347.01 718.226C1354.89 737.683 1375.31 748.397 1395.39 757.728L1497.14 804.419Z" fill="hsl(48 96.6% 76.7%)"/>
<path d="M1446.68 555.276L1402.27 577.774C1399.61 578.935 1397.16 580.522 1395.01 582.474C1392.72 585.085 1390.95 588.112 1389.8 591.391C1388.82 593.907 1387.57 596.307 1386.06 598.545C1381.95 604.143 1374.87 606.805 1369.16 608.913L1324.62 625.536C1319.05 627.141 1313.93 630.029 1309.69 633.969C1307.87 636.108 1306.27 638.423 1304.92 640.881C1302.26 645.339 1299.77 649.555 1295.1 650.972L1293.48 651.387C1291.78 651.542 1290.2 652.303 1289.02 653.53C1287.53 655.603 1288.6 658.437 1289.43 660.684C1292.76 669.615 1292.67 679.46 1289.19 688.332L1270.63 686.638L1268.14 697.974L1268.52 697.974L1270.98 686.846L1289.5 688.539C1293.08 679.534 1293.19 669.524 1289.81 660.442C1288.95 658.126 1287.98 655.534 1289.33 653.53C1290.46 652.368 1291.97 651.656 1293.58 651.525C1294.1 651.525 1294.69 651.249 1295.24 651.076C1300.01 649.624 1302.67 645.166 1305.26 640.708C1306.59 638.252 1308.17 635.937 1309.96 633.796C1314.18 629.898 1319.24 627.034 1324.75 625.432L1369.3 608.74C1375.04 606.597 1382.23 603.902 1386.37 598.372C1387.9 596.103 1389.16 593.668 1390.14 591.114C1391 588.074 1392.57 585.278 1394.7 582.95C1396.84 580.621 1399.49 578.825 1402.44 577.705L1445.16 556.416L1439.6 563.017L1439.91 563.294L1446.68 555.276Z" fill="hsl(48 96.6% 76.7%)"/>
<path d="M1283.11 812.92C1274.6 806.018 1269.05 796.129 1267.59 785.272C1267.18 782.266 1266.24 775.25 1261.23 774.904L1260.85 774.904L1260.65 775.285C1259.57 776.879 1257.94 778.028 1256.08 778.518C1254.22 779.007 1252.24 778.804 1250.52 777.946C1246.95 775.963 1244 773.017 1242.02 769.444C1239.5 766.145 1237.76 762.316 1236.94 758.246C1236.69 753.796 1237.43 749.345 1239.11 745.217L1239.7 743.282C1241.74 738.294 1241.85 732.726 1240.01 727.661C1239.27 726.227 1238.2 724.986 1236.89 724.038C1235.58 723.09 1234.07 722.461 1232.48 722.2C1230.63 721.851 1228.71 722.248 1227.16 723.306C1226.6 715.568 1225.44 707.884 1223.7 700.324L1223.53 699.529L1222.84 699.944C1218.41 702.467 1211.88 696.764 1207.11 692.617L1205.35 691.096L1204.59 691.995L1206.35 693.481C1211.16 697.697 1217.65 703.365 1222.73 701.292C1224.48 708.945 1225.63 716.721 1226.19 724.55L1226.19 725.898L1227.12 724.896C1227.79 724.235 1228.62 723.748 1229.52 723.477C1230.43 723.206 1231.38 723.16 1232.31 723.341C1233.72 723.578 1235.05 724.138 1236.21 724.977C1237.37 725.817 1238.31 726.913 1238.98 728.179C1240.69 732.975 1240.55 738.235 1238.6 742.936L1238.01 744.837C1236.28 749.136 1235.53 753.761 1235.8 758.385C1236.65 762.634 1238.44 766.638 1241.05 770.101C1243.15 773.865 1246.28 776.956 1250.07 779.017C1252.01 779.979 1254.23 780.219 1256.33 779.694C1258.44 779.168 1260.28 777.911 1261.54 776.149C1265 776.736 1265.9 781.436 1266.45 785.514C1267.74 794.854 1271.97 803.543 1278.51 810.328L1278.2 810.743L1282.45 813.888L1283.11 812.92Z" fill="hsl(48 96.6% 76.7%)"/>
<path d="M1325.65 1465.03C1325.69 1464.44 1325.6 1463.85 1325.37 1463.31C1325.14 1462.76 1324.79 1462.27 1324.34 1461.89C1323.94 1461.63 1323.47 1461.52 1323 1461.56C1322.53 1461.61 1322.09 1461.81 1321.75 1462.13L1322.96 1463.69C1323.16 1463.69 1323.27 1463.69 1323.27 1463.69C1323.48 1464 1323.63 1464.36 1323.69 1464.73C1323.76 1465.11 1323.74 1465.49 1323.65 1465.86C1323.48 1466.62 1323.13 1467.04 1322.58 1467.04C1319.92 1467.04 1318.22 1463.86 1317.01 1461.02C1311.03 1446.79 1301.43 1433.65 1292.13 1420.97C1276.3 1399.37 1261.41 1378.98 1263.06 1353.85C1263.31 1350.57 1263.76 1347.11 1264.21 1343.49C1266.04 1329.25 1267.94 1314.52 1256.46 1307.3C1251.79 1304.87 1246.6 1303.6 1241.33 1303.6C1237.19 1303.48 1233.09 1302.71 1229.2 1301.32C1223.84 1298.52 1219.21 1294.51 1215.68 1289.61L1115.7 1171.24C1107.13 1161.08 1097.73 1151.06 1085.32 1149.5L1079.27 1099.84L1077.86 1101.36C1073.94 1105.08 1068.73 1107.13 1063.32 1107.06C1057.92 1107 1052.76 1104.83 1048.93 1101.01L1047.93 1099.87L1041.36 1114.42C1012.78 1104.05 994.81 1070.74 1002.07 1041.15L1002.59 1038.98L1000.65 1040.08C993.255 1044.16 982.126 1049.41 970.929 1047.76C961.148 1046.3 951.299 1037.91 952.128 1027.54C952.421 1025.19 952.954 1022.87 953.718 1020.63C955.23 1016.96 955.662 1012.95 954.962 1009.05C952.232 998.68 938.408 998.3 931.012 998.68C935.823 987.604 936.843 975.249 933.915 963.533C952.543 960.457 963.81 940.965 965.019 923.789C966.229 905.645 959.179 887.985 952.716 872.329C964.639 870.67 980.364 866.143 989.453 854.116C994.493 847.323 996.642 838.813 995.432 830.442C994.699 825.085 992.163 820.136 988.244 816.411C996.033 815.958 1003.78 814.895 1011.4 813.231L1012.26 813.024L1010.47 796.435L1008.5 796.643L1010.12 811.503C1002.03 813.235 993.812 814.264 985.548 814.579L982.61 814.579L985.029 816.273C987.345 817.967 989.29 820.116 990.746 822.588C992.202 825.06 993.138 827.803 993.497 830.65C994.626 838.483 992.613 846.446 987.898 852.803C978.705 864.726 962.876 868.977 951.23 870.463L949.951 870.463L950.435 871.638C956.932 887.363 964.259 905.196 963.049 923.478C961.943 940.205 950.884 959.247 932.602 961.494L931.496 961.494L931.807 962.6C935.101 974.723 933.974 987.623 928.628 998.991L927.867 1000.55L929.595 1000.37C935.816 999.786 950.573 999.441 953.131 1009.05C953.699 1012.61 953.268 1016.26 951.886 1019.59C951.101 1021.95 950.557 1024.38 950.262 1026.85C949.294 1038.25 960.077 1047.58 970.722 1049.17C981.366 1050.76 992.183 1046.3 999.752 1042.26C993.566 1072.54 1012.33 1105.95 1041.64 1116.05L1042.5 1116.32L1048.59 1102.81C1052.62 1106.51 1057.9 1108.56 1063.38 1108.55C1068.66 1108.67 1073.81 1106.89 1077.89 1103.54L1083.63 1150.74L1084.39 1150.74C1096.49 1151.92 1105.78 1161.84 1114.28 1171.9L1214.23 1290.23C1217.96 1295.39 1222.85 1299.6 1228.5 1302.53C1232.6 1303.98 1236.89 1304.78 1241.22 1304.92C1246.19 1304.91 1251.08 1306.1 1255.5 1308.37C1265.86 1314.94 1264.1 1329.11 1262.41 1342.62C1261.96 1346.08 1261.47 1349.74 1261.27 1352.99C1259.47 1378.81 1275.37 1400.47 1290.68 1421.38C1299.91 1434 1309.44 1447.03 1315.35 1461.06C1316.29 1463.24 1318.43 1468.35 1322.75 1468.28C1323.42 1468.26 1324.06 1468.01 1324.58 1467.59C1325.1 1467.16 1325.46 1466.58 1325.62 1465.93C1325.65 1465.63 1325.66 1465.33 1325.65 1465.03Z" fill="hsl(48 96.6% 76.7%)"/>
<path d="M1361.15 1274.95C1344.69 1270.33 1329.05 1263.2 1314.77 1253.8L1311.93 1251.9C1307.05 1248.27 1301.67 1245.35 1295.97 1243.23C1291.44 1241.97 1286.82 1241.12 1282.14 1240.67C1272.19 1239.39 1262.82 1238.18 1258.26 1230.3L1256.88 1227.95L1257.53 1230.61C1257.61 1231.69 1257.37 1232.77 1256.85 1233.71C1256.33 1234.66 1255.54 1235.44 1254.59 1235.95C1253.64 1236.46 1252.56 1236.69 1251.49 1236.61C1250.41 1236.53 1249.38 1236.14 1248.51 1235.49C1247.43 1234.14 1246.67 1232.55 1246.3 1230.85C1246.05 1229.9 1245.72 1228.96 1245.34 1228.06C1244.94 1227.17 1244.36 1226.39 1243.62 1225.76C1242.88 1225.13 1242.02 1224.68 1241.08 1224.43C1240.59 1224.3 1240.06 1224.29 1239.56 1224.41C1239.06 1224.53 1238.6 1224.77 1238.22 1225.12C1237.53 1225.79 1237.04 1226.64 1236.8 1227.57L1236.52 1228.19C1233.9 1234.55 1225.26 1236.52 1218.86 1234.35C1212.47 1232.17 1206.97 1226.47 1202.45 1221.56L1202.03 1221.07L1201.82 1221.66C1201.48 1222.4 1200.96 1223.05 1200.31 1223.54C1199.66 1224.04 1198.9 1224.36 1198.09 1224.5C1196.87 1224.72 1195.61 1224.67 1194.42 1224.34C1193.22 1224.01 1192.11 1223.41 1191.18 1222.59C1188.31 1219.23 1186.59 1215.04 1186.27 1210.64L1185.96 1208.84L1185.51 1210.6C1183.97 1216.63 1181.36 1222.33 1177.8 1227.43C1168.99 1212.23 1154.06 1196.33 1138.2 1196.57L1138.2 1197.33C1153.89 1197.05 1169.3 1213.89 1177.39 1228.44L1177.7 1228.99L1178.05 1228.47C1181.52 1223.65 1184.14 1218.28 1185.79 1212.57C1186.24 1216.56 1187.93 1220.31 1190.63 1223.29C1191.67 1224.21 1192.91 1224.88 1194.25 1225.24C1195.6 1225.6 1197.01 1225.64 1198.37 1225.36C1199.2 1225.22 1199.98 1224.9 1200.68 1224.42C1201.37 1223.94 1201.95 1223.32 1202.38 1222.59C1206.68 1228.09 1212.29 1232.42 1218.69 1235.21C1225.43 1237.49 1234.55 1235.38 1237.35 1228.61L1237.63 1227.95C1237.85 1227.15 1238.27 1226.42 1238.84 1225.81C1239.12 1225.54 1239.47 1225.34 1239.86 1225.25C1240.24 1225.16 1240.64 1225.18 1241.02 1225.29C1241.83 1225.53 1242.58 1225.93 1243.22 1226.48C1243.86 1227.03 1244.38 1227.71 1244.75 1228.47C1245.12 1229.36 1245.43 1230.27 1245.68 1231.2C1246.07 1233.02 1246.88 1234.71 1248.07 1236.14C1249 1236.98 1250.18 1237.48 1251.42 1237.59C1252.67 1237.7 1253.92 1237.39 1254.98 1236.73C1255.88 1236.29 1256.67 1235.64 1257.27 1234.84C1257.87 1234.03 1258.27 1233.09 1258.43 1232.1C1263.44 1239.25 1272.91 1240.43 1282.07 1241.6C1286.67 1242.05 1291.21 1242.9 1295.65 1244.16C1301.3 1246.25 1306.62 1249.13 1311.45 1252.73C1312.38 1253.35 1313.31 1254.01 1314.28 1254.63C1328.63 1264.07 1344.34 1271.23 1360.87 1275.89L1361.15 1274.95Z" fill="hsl(48 96.6% 76.7%)"/>
<path d="M1117.6 1426.98L1106.4 1355.41C1105.47 1349.4 1104.33 1341.96 1099.73 1336.68C1096.68 1333.53 1093.07 1330.98 1089.09 1329.14C1087.91 1328.52 1086.77 1327.86 1085.63 1327.21C1072.31 1318.67 1062.91 1305.22 1059.47 1289.78C1056.04 1274.34 1058.84 1258.16 1067.28 1244.78L1067.77 1244.09L1066.94 1243.88C1059.01 1241.76 1051.77 1237.64 1045.91 1231.9C1040.04 1226.17 1035.75 1219.03 1033.45 1211.16C1036.84 1207.27 1041.04 1204.15 1045.74 1202.02C1050.44 1199.89 1055.55 1198.8 1060.72 1198.82L1061.65 1198.82L1061.27 1197.95C1059.9 1194.9 1059.23 1191.58 1059.29 1188.23C1059.36 1184.89 1060.16 1181.6 1061.65 1178.6L1061.92 1178.05L1061.37 1177.8C1054.45 1174.62 1048.69 1169.37 1044.89 1162.77C1046.35 1162.16 1047.95 1161.93 1049.53 1162.11C1051.11 1162.29 1052.62 1162.88 1053.91 1163.81L1055.81 1165.23L1054.81 1163.08C1053.64 1160.33 1053.04 1157.37 1053.04 1154.37C1053.05 1151.38 1053.66 1148.42 1054.83 1145.67C1056 1142.92 1057.72 1140.43 1059.88 1138.36C1062.04 1136.28 1064.59 1134.67 1067.39 1133.6L1069.25 1132.98L1067.35 1132.46C1061.1 1131.35 1055.25 1128.65 1050.35 1124.62C1046.1 1120.4 1044.3 1112.59 1048.55 1108.13L1047.69 1107.34C1042.95 1112.28 1044.89 1120.85 1049.52 1125.45C1054.05 1129.29 1059.49 1131.93 1065.31 1133.12C1060.08 1135.55 1055.95 1139.87 1053.77 1145.21C1051.4 1150.48 1051.14 1156.45 1053.04 1161.91C1051.61 1161.19 1050.03 1160.82 1048.43 1160.82C1046.83 1160.82 1045.25 1161.19 1043.82 1161.91L1043.26 1162.18L1043.57 1162.7C1047.37 1169.59 1053.23 1175.11 1060.33 1178.5C1058.95 1181.47 1058.19 1184.69 1058.11 1187.97C1058.03 1191.24 1058.62 1194.5 1059.85 1197.54C1054.59 1197.62 1049.4 1198.83 1044.63 1201.07C1039.86 1203.31 1035.63 1206.53 1032.2 1210.53L1032.2 1210.78L1032.2 1211.09C1034.44 1219.11 1038.7 1226.42 1044.59 1232.31C1050.47 1238.2 1057.78 1242.47 1065.8 1244.71C1057.44 1258.4 1054.79 1274.82 1058.42 1290.44C1062.04 1306.06 1071.65 1319.64 1085.18 1328.24C1086.32 1328.9 1087.5 1329.52 1088.64 1330.18C1092.5 1331.96 1096.01 1334.42 1099.01 1337.44C1103.33 1342.48 1104.47 1349.74 1105.4 1355.58L1116.29 1427.33L1117.6 1426.98Z" fill="hsl(48 96.6% 76.7%)"/>
<path d="M1658.57 1463.81C1650.64 1454.04 1640.8 1441.85 1627.35 1437.11L1626.73 1436.91L1627.01 1436.33C1629.18 1431.73 1630.24 1426.68 1630.1 1421.59L1614.51 1416.34L1613.22 1418.45C1611.28 1417.26 1609.3 1416.07 1607.36 1414.84L1579.58 1397.58L1580.26 1396.45C1550.88 1375.03 1524.01 1350.36 1500.18 1322.9L1499.39 1322.01L1510.02 1295.66C1459.32 1262.08 1406.99 1227.31 1364.97 1181.61C1360.92 1177.22 1356.9 1172.69 1352.85 1167.99C1329.9 1142.11 1306.17 1115.31 1273.21 1109.25L1271 1108.84L1278.96 1086.02L1254.01 1087.32L1245.53 1059.6L1218.29 1078.09L1217.16 1076.93C1202.65 1062.27 1184.53 1051.7 1164.63 1046.28L1161.63 1045.46L1163.67 1043.11C1180.8 1023.63 1195.45 1002.1 1207.29 979.025C1201.26 975.462 1196.38 970.23 1193.25 963.958C1190.12 957.686 1188.87 950.643 1189.65 943.677C1175.96 935.494 1161.37 928.912 1146.17 924.063L1145.63 923.892L1145.25 923.45C1112.75 883.776 1075.56 848.191 1034.49 817.475L977.259 754.782C966.67 743.204 956.388 729.548 958.499 715.246C953.006 716.914 947.221 717.389 941.53 716.637C935.84 715.885 930.376 713.925 925.506 710.887C919.925 707.821 915.171 703.446 911.654 698.137C908.137 692.828 905.962 686.744 905.315 680.409C905.111 677.719 905.315 674.926 905.315 672.202C905.315 664.744 905.587 657.661 901.059 652.962C895.849 647.513 881.004 644.074 870.143 641.554C866.738 640.736 863.333 639.987 861.052 639.306L859.69 638.898L859.111 624.186C857.668 625.644 856.572 627.408 855.906 629.348C855.24 631.288 855.02 633.353 855.264 635.39L855.911 639.919L852.233 637.161C843.982 630.971 835.076 625.706 825.675 621.462L823.837 620.645L830.851 606.819C829.665 606.476 828.571 605.871 827.65 605.048L826.663 604.163L835.209 581.79C829.816 581.674 824.436 582.351 819.24 583.799L816.482 584.548L817.027 579.644C817.56 575.706 817.777 571.732 817.674 567.76L815.325 567.453C807.706 566.859 800.191 565.314 792.955 562.856C787.817 560.808 782.946 558.143 778.45 554.921C771.232 550.018 765.988 546.476 752.131 549.405C749.577 549.95 747.024 550.665 744.504 551.38C740.643 552.544 736.707 553.443 732.723 554.07C719.58 555.807 706.472 551.686 694.895 548.008L693.601 547.6L692.886 528.291C688.164 530.201 683.818 532.934 680.05 536.362C676.081 539.822 671.617 542.669 666.805 544.807C662.788 546.165 658.631 547.067 654.412 547.498C647.432 548.451 640.792 549.371 637.047 554.308L635.719 556.045L634.153 554.513C628.772 549.149 625.099 542.312 623.598 534.864C615.074 540.636 606.217 545.9 597.074 550.631C588.017 553.117 575.283 551.278 564.047 549.677C558.94 548.962 554.139 548.281 550.053 548.043C543.283 548.052 536.576 546.745 530.305 544.194C527.608 542.95 525.214 541.132 523.291 538.868C521.368 536.604 519.962 533.947 519.171 531.084C508.276 539.938 497.312 547.361 484.34 547.157C471.367 546.953 460.88 538.508 450.495 530.369C441.983 523.558 433.165 516.747 423.495 514.602C415.294 513.158 406.953 512.666 398.64 513.138C382.705 513.41 366.293 513.682 357.543 501.185C348.837 506.9 338.736 510.126 328.329 510.515L325.163 510.515L326.525 507.655C328.469 503.25 329.016 498.354 328.09 493.629C327.165 488.903 324.812 484.575 321.349 481.229C318.434 482.232 315.753 483.818 313.47 485.89C311.187 487.963 309.35 490.479 308.071 493.284L307.39 494.783L305.823 494.374C291.114 490.594 280.764 475.917 280.73 459.878C272.864 466.314 254.58 479.765 244.025 474.385C242.501 473.796 241.123 472.881 239.988 471.705C238.853 470.529 237.988 469.119 237.454 467.574C236.501 463.76 238.918 460.252 241.506 456.54C244.468 452.284 247.26 448.299 245.421 443.873C244.933 443.116 244.251 442.505 243.447 442.102L217.059 425.381C207.219 431.034 200.341 432.873 194.859 431.307C187.743 429.298 183.896 421.942 178.55 411.76C176.746 408.355 174.737 404.472 172.353 400.386L153.661 392.349L153.661 391.328C153.721 377.525 156.425 363.861 161.628 351.076C154.186 353.09 146.59 354.479 138.918 355.231L134.866 355.606L137.488 351.553C143.072 343.108 148.826 334.526 155.023 326.388C146.102 329.01 137.147 331.972 128.465 334.867C124.141 336.297 119.817 337.727 115.492 339.124L113.688 339.702L113.075 337.932C110.804 331.457 110.138 324.527 111.134 317.738L67.416 263.593L1.57784e-07 237.61L1.29384 234L69.7313 260.358L115.22 316.648L115.22 317.5C114.239 323.293 114.6 329.235 116.276 334.867L127.273 331.189C137.896 327.784 148.894 324.004 159.824 320.973L165.714 319.373L161.832 324.072C154.979 332.617 148.581 341.518 142.663 350.736C150.063 349.818 157.367 348.246 164.488 346.036L168.608 344.777L166.838 348.693C160.955 361.646 157.803 375.672 157.576 389.898L174.941 397.457L175.282 398.002C177.835 402.327 179.98 406.448 181.887 410.057C186.756 419.388 190.297 426.131 195.813 427.697C200.307 428.991 206.708 427.016 216.004 421.533L217.025 420.954L245.421 439.003C246.868 439.777 248.052 440.962 248.826 442.408C251.482 448.776 247.635 454.327 244.536 458.788C242.459 461.751 240.518 464.577 241.131 466.654C241.472 468.085 243.038 469.515 245.728 470.877C254.342 475.27 272.967 461.717 281.547 453.85L285.394 450.445L284.781 455.587C283.147 469.208 290.297 485.316 305.211 490.083C306.879 486.964 309.155 484.209 311.903 481.981C314.651 479.753 317.816 478.097 321.213 477.109L322.201 476.836L322.984 477.483C326.997 480.95 329.911 485.513 331.369 490.613C332.827 495.712 332.764 501.126 331.189 506.191C340.423 505.388 349.285 502.183 356.896 496.894L358.599 495.702L359.688 497.507C366.94 509.8 382.262 509.562 398.503 509.29C407.125 508.78 415.777 509.295 424.278 510.822C434.799 513.206 443.958 520.391 452.811 527.304C463.025 535.443 472.933 543.105 484.34 543.275C497.108 543.479 508.173 535.136 519.443 525.771L522.848 522.945L522.61 527.372C522.725 530.257 523.665 533.048 525.319 535.414C526.972 537.78 529.27 539.622 531.939 540.721C537.761 543.014 543.967 544.17 550.223 544.126C554.445 544.365 559.348 545.08 564.524 545.829C575.385 547.361 587.711 549.234 595.95 546.885C605.425 541.79 614.631 536.209 623.53 530.164L624.96 531.424L626.901 531.186C627.7 538.259 630.674 544.911 635.413 550.222C640.213 545.523 647.091 544.569 653.799 543.616C657.688 543.207 661.524 542.385 665.239 541.164C669.669 539.159 673.777 536.508 677.428 533.297C682.166 528.867 687.9 525.643 694.146 523.898L696.393 523.456L697.177 544.705C708.038 548.111 720.193 551.788 732.008 550.188C735.821 549.594 739.588 548.729 743.278 547.6C745.866 546.885 748.488 546.17 751.143 545.591C766.601 542.185 773.002 546.646 780.425 551.652C784.639 554.719 789.213 557.258 794.044 559.212C800.986 561.55 808.192 563.014 815.495 563.571L820.943 564.252L820.943 565.784C821.278 570.328 821.13 574.894 820.5 579.406C826.083 578.155 831.817 577.719 837.524 578.112L840.146 578.282L830.715 602.903C831.443 603.219 832.242 603.336 833.03 603.243L836.673 602.767L828.536 618.806C836.366 622.479 843.852 626.844 850.905 631.849C851.226 629.157 852.161 626.576 853.637 624.303C855.112 622.03 857.09 620.126 859.417 618.738L862.209 617.137L862.924 635.969C865.104 636.548 867.725 637.161 870.517 637.808C882.468 640.6 897.347 644.04 903.34 650.306C909.333 656.571 908.822 664.37 908.686 672.304C908.686 674.926 908.686 677.651 908.686 680.171C909.492 685.809 911.554 691.195 914.72 695.93C917.885 700.665 922.074 704.629 926.977 707.528C931.879 710.427 937.37 712.188 943.044 712.681C948.717 713.174 954.43 712.387 959.758 710.376L963.64 708.605L962.448 712.692C958.362 726.518 968.781 740.445 979.472 752.194L1036.44 814.648C1077.51 845.358 1114.71 880.931 1147.23 920.589C1162.93 925.623 1178 932.481 1192.11 941.021L1193.23 941.702L1192.99 942.996C1191.97 949.656 1193.07 956.467 1196.12 962.472C1199.17 968.476 1204.03 973.372 1210.01 976.471L1211.79 977.356L1210.9 979.093C1199.22 1002.19 1184.76 1023.78 1167.86 1043.39C1186.76 1049.07 1203.99 1059.29 1218.05 1073.15L1246.89 1053.5L1256.01 1083.37L1283.7 1081.9L1275.29 1105.74C1308.38 1112.79 1332.01 1139.49 1354.89 1165.3C1358.94 1169.83 1362.93 1174.36 1366.94 1178.72C1409.03 1224.45 1461.7 1259.32 1512.6 1293.03L1513.93 1293.92L1503 1320.99C1533.62 1356.05 1569.17 1386.46 1608.55 1411.27L1615.19 1414.98L1615.19 1415.18L1631.3 1420.73L1631.3 1421.14C1631.52 1426.33 1630.53 1431.49 1628.4 1436.23C1641.85 1441.23 1651.62 1453.26 1659.52 1463.1L1714 1531L1684.72 1496.1L1658.57 1463.81Z" fill="hsl(48 96.6% 76.7%)"/>
</g>
<defs>
<clipPath id="clip0_1293_1674">
<rect width="1728" height="1728" fill="white" transform="matrix(4.37114e-08 1 1 -4.37114e-08 0 7.62939e-05)"/>
</clipPath>
</defs>
</svg>
