<svg width="75" height="75" viewBox="0 0 75 75" fill="none" xmlns="http://www.w3.org/2000/svg">
<mask id="path-1-outside-1_1293_810" maskUnits="userSpaceOnUse" x="20.3838" y="39.3809" width="36" height="18" fill="black">
<rect fill="white" x="20.3838" y="39.3809" width="36" height="18"/>
<path d="M23.5308 53.9157L22.4375 54.9493L22.54 54.298L22.6781 53.649L22.8394 53.0109L23.0354 52.3732L23.2428 51.7356L23.4848 51.1212L23.7501 50.5181L24.0495 49.9151L24.3608 49.3352L24.7062 48.7672L25.0635 48.2106L25.4555 47.6659L25.8589 47.1438L26.2969 46.6454L26.7463 46.1585L27.2183 45.6947L27.7024 45.2422L28.2097 44.8249L28.7397 44.4189L29.2817 44.0361L29.8345 43.6771L30.4111 43.352L30.9985 43.0389L31.5978 42.7609L32.1972 42.4941L32.8193 42.262L33.4533 42.0649L34.0873 41.8797L34.7326 41.7291L35.378 41.6011L36.0347 41.5083L36.6915 41.4392L37.3488 41.3928L38.0055 41.3809L38.6622 41.3928L39.3189 41.4392L39.9762 41.5083L40.633 41.6011L41.2783 41.7291L41.9237 41.8797L42.5577 42.0649L43.1911 42.262L43.8138 42.4941L44.4131 42.7609L45.0125 43.0389L45.5999 43.352L46.1759 43.6771L46.7293 44.0361L47.2712 44.4189L47.8013 44.8249L48.308 45.2422L48.7921 45.6947L49.2647 46.1585L49.7141 46.6454L50.1521 47.1438L50.5555 47.6659L50.9474 48.2106L51.3042 48.7672L51.6502 49.3352L51.9615 49.9151L52.2609 50.5181L52.5262 51.1212L52.7682 51.7356L52.9756 52.3732L53.1716 53.0109L53.3329 53.649L53.471 54.298L53.5749 54.9588V54.9707L53.0329 54.4373L52.4802 53.9157L51.9155 53.4169L51.3275 52.9418L50.7282 52.4893L50.1061 52.0488L49.4721 51.6428L48.8267 51.2486L48.1586 50.8777L47.49 50.5414L46.8099 50.2169L46.1072 49.9151L45.4039 49.6484L44.6892 49.4049L43.9632 49.1846L43.2377 48.9875L42.4997 48.8137L41.7624 48.6631L41.013 48.547L40.2643 48.4541L39.5149 48.3963L38.7662 48.3499L38.0055 48.338L37.2448 48.3499L36.4955 48.3963L35.7467 48.4541L34.9974 48.547L34.2486 48.6631L33.5107 48.8137L32.7733 48.9875L32.0472 49.1846L31.3212 49.4049L30.6065 49.6484L29.9038 49.9151L29.201 50.2169L28.521 50.5414L27.8523 50.8777L27.1843 51.2486L26.5389 51.6428L25.9049 52.0488L25.2828 52.4893L24.6835 52.9418L24.0955 53.4169L23.5308 53.9157Z"/>
</mask>
<path d="M23.5308 53.9157L22.4375 54.9493L22.54 54.298L22.6781 53.649L22.8394 53.0109L23.0354 52.3732L23.2428 51.7356L23.4848 51.1212L23.7501 50.5181L24.0495 49.9151L24.3608 49.3352L24.7062 48.7672L25.0635 48.2106L25.4555 47.6659L25.8589 47.1438L26.2969 46.6454L26.7463 46.1585L27.2183 45.6947L27.7024 45.2422L28.2097 44.8249L28.7397 44.4189L29.2817 44.0361L29.8345 43.6771L30.4111 43.352L30.9985 43.0389L31.5978 42.7609L32.1972 42.4941L32.8193 42.262L33.4533 42.0649L34.0873 41.8797L34.7326 41.7291L35.378 41.6011L36.0347 41.5083L36.6915 41.4392L37.3488 41.3928L38.0055 41.3809L38.6622 41.3928L39.3189 41.4392L39.9762 41.5083L40.633 41.6011L41.2783 41.7291L41.9237 41.8797L42.5577 42.0649L43.1911 42.262L43.8138 42.4941L44.4131 42.7609L45.0125 43.0389L45.5999 43.352L46.1759 43.6771L46.7293 44.0361L47.2712 44.4189L47.8013 44.8249L48.308 45.2422L48.7921 45.6947L49.2647 46.1585L49.7141 46.6454L50.1521 47.1438L50.5555 47.6659L50.9474 48.2106L51.3042 48.7672L51.6502 49.3352L51.9615 49.9151L52.2609 50.5181L52.5262 51.1212L52.7682 51.7356L52.9756 52.3732L53.1716 53.0109L53.3329 53.649L53.471 54.298L53.5749 54.9588V54.9707L53.0329 54.4373L52.4802 53.9157L51.9155 53.4169L51.3275 52.9418L50.7282 52.4893L50.1061 52.0488L49.4721 51.6428L48.8267 51.2486L48.1586 50.8777L47.49 50.5414L46.8099 50.2169L46.1072 49.9151L45.4039 49.6484L44.6892 49.4049L43.9632 49.1846L43.2377 48.9875L42.4997 48.8137L41.7624 48.6631L41.013 48.547L40.2643 48.4541L39.5149 48.3963L38.7662 48.3499L38.0055 48.338L37.2448 48.3499L36.4955 48.3963L35.7467 48.4541L34.9974 48.547L34.2486 48.6631L33.5107 48.8137L32.7733 48.9875L32.0472 49.1846L31.3212 49.4049L30.6065 49.6484L29.9038 49.9151L29.201 50.2169L28.521 50.5414L27.8523 50.8777L27.1843 51.2486L26.5389 51.6428L25.9049 52.0488L25.2828 52.4893L24.6835 52.9418L24.0955 53.4169L23.5308 53.9157Z" fill="#FDE047"/>
<path d="M22.4375 54.9493L23.4254 55.1047C23.4919 54.6821 23.2821 54.2639 22.9035 54.0645C22.5249 53.8652 22.0615 53.9287 21.7505 54.2227L22.4375 54.9493ZM23.0708 55.7268L23.1245 55.676L21.7505 54.2227L21.6968 54.2735L23.0708 55.7268ZM21.4497 54.7939L21.4482 54.8034L23.4239 55.1142L23.4254 55.1047L21.4497 54.7939ZM22.4375 54.9493L20.4618 54.6385C20.3288 55.4839 20.7484 56.3202 21.5056 56.7189C22.2627 57.1177 23.1897 56.9905 23.8115 56.4026L22.4375 54.9493ZM23.5308 53.9157L22.2066 52.4169C22.1897 52.4318 22.1731 52.447 22.1568 52.4624L23.5308 53.9157ZM24.0955 53.4169L22.8385 51.8612C22.8157 51.8797 22.7933 51.8986 22.7713 51.918L24.0955 53.4169ZM24.6835 52.9418L23.4785 51.3455C23.4609 51.3588 23.4436 51.3723 23.4265 51.3861L24.6835 52.9418ZM25.2828 52.4893L24.1269 50.8572C24.1104 50.8689 24.094 50.8809 24.0778 50.8931L25.2828 52.4893ZM25.9049 52.0488L24.8263 50.3645C24.8001 50.3813 24.7744 50.3987 24.749 50.4166L25.9049 52.0488ZM26.5389 51.6428L25.4965 49.9359C25.4844 49.9433 25.4723 49.9508 25.4603 49.9585L26.5389 51.6428ZM27.1843 51.2486L26.2135 49.5C26.1893 49.5134 26.1654 49.5273 26.1419 49.5418L27.1843 51.2486ZM27.8523 50.8777L26.9536 49.091C26.9293 49.1033 26.9053 49.1159 26.8816 49.1291L27.8523 50.8777ZM28.521 50.5414L27.6597 48.7363C27.6472 48.7423 27.6347 48.7484 27.6222 48.7547L28.521 50.5414ZM29.201 50.2169L28.4118 48.3792C28.3875 48.3896 28.3635 48.4005 28.3397 48.4118L29.201 50.2169ZM29.9038 49.9151L29.1941 48.0452C29.1673 48.0554 29.1408 48.0661 29.1145 48.0774L29.9038 49.9151ZM30.6065 49.6484L29.9615 47.7552C29.9398 47.7626 29.9183 47.7704 29.8968 47.7785L30.6065 49.6484ZM31.3212 49.4049L30.7405 47.491C30.719 47.4976 30.6975 47.5045 30.6762 47.5117L31.3212 49.4049ZM32.0472 49.1846L31.5233 47.2544C31.5043 47.2596 31.4854 47.265 31.4666 47.2707L32.0472 49.1846ZM32.7733 48.9875L32.3143 47.0409C32.2926 47.046 32.2709 47.0515 32.2494 47.0574L32.7733 48.9875ZM33.5107 48.8137L33.1107 46.8541C33.091 46.8581 33.0713 46.8624 33.0517 46.867L33.5107 48.8137ZM34.2486 48.6631L33.9422 46.6867C33.9109 46.6915 33.8797 46.6971 33.8486 46.7035L34.2486 48.6631ZM34.9974 48.547L34.7514 46.5622C34.7312 46.5647 34.7111 46.5675 34.691 46.5706L34.9974 48.547ZM35.7467 48.4541L35.5929 46.46C35.5621 46.4624 35.5314 46.4655 35.5007 46.4693L35.7467 48.4541ZM36.4955 48.3963L36.3718 46.4002C36.3617 46.4008 36.3517 46.4015 36.3417 46.4023L36.4955 48.3963ZM37.2448 48.3499L37.2135 46.3502C37.1827 46.3506 37.1519 46.3518 37.1211 46.3537L37.2448 48.3499ZM38.0055 48.338L38.0367 46.3383C38.0159 46.3379 37.9951 46.3379 37.9742 46.3383L38.0055 48.338ZM38.7662 48.3499L38.89 46.3537C38.8592 46.3518 38.8283 46.3506 38.7974 46.3502L38.7662 48.3499ZM39.5149 48.3963L39.6686 46.4023C39.6587 46.4015 39.6487 46.4008 39.6387 46.4002L39.5149 48.3963ZM40.2643 48.4541L40.5104 46.4693C40.4797 46.4655 40.4489 46.4624 40.418 46.46L40.2643 48.4541ZM41.013 48.547L41.3192 46.5705C41.2992 46.5675 41.2792 46.5647 41.2592 46.5622L41.013 48.547ZM41.7624 48.6631L42.1626 46.7035C42.1314 46.6971 42.1 46.6915 42.0685 46.6866L41.7624 48.6631ZM42.4997 48.8137L42.9583 46.867C42.939 46.8624 42.9195 46.8581 42.9 46.8541L42.4997 48.8137ZM43.2377 48.9875L43.762 47.0575C43.7402 47.0515 43.7183 47.046 43.6963 47.0408L43.2377 48.9875ZM43.9632 49.1846L44.5438 47.2707C44.5251 47.2651 44.5063 47.2596 44.4874 47.2545L43.9632 49.1846ZM44.6892 49.4049L45.3342 47.5117C45.3129 47.5045 45.2914 47.4976 45.2699 47.491L44.6892 49.4049ZM45.4039 49.6484L46.1131 47.7783C46.0918 47.7702 46.0704 47.7626 46.0489 47.7552L45.4039 49.6484ZM46.1072 49.9151L46.8965 48.0774C46.87 48.066 46.8433 48.0552 46.8164 48.045L46.1072 49.9151ZM46.8099 50.2169L47.6712 48.4118C47.6474 48.4005 47.6234 48.3896 47.5992 48.3792L46.8099 50.2169ZM47.49 50.5414L48.3887 48.7547C48.3763 48.7484 48.3638 48.7423 48.3512 48.7363L47.49 50.5414ZM48.1586 50.8777L49.1294 49.1291C49.1057 49.1159 49.0817 49.1033 49.0574 49.091L48.1586 50.8777ZM48.8267 51.2486L49.8691 49.5418C49.8455 49.5274 49.8216 49.5134 49.7975 49.5L48.8267 51.2486ZM49.4721 51.6428L50.5507 49.9585C50.5387 49.9508 50.5266 49.9433 50.5145 49.9359L49.4721 51.6428ZM50.1061 52.0488L51.262 50.4166C51.2366 50.3987 51.2108 50.3813 51.1847 50.3645L50.1061 52.0488ZM50.7282 52.4893L51.9331 50.8931C51.917 50.8809 51.9006 50.8689 51.884 50.8572L50.7282 52.4893ZM51.3275 52.9418L52.5845 51.3861C52.5674 51.3723 52.55 51.3588 52.5325 51.3455L51.3275 52.9418ZM51.9155 53.4169L53.2397 51.918C53.2177 51.8986 53.1953 51.8797 53.1725 51.8612L51.9155 53.4169ZM52.4802 53.9157L53.8527 52.461C53.8368 52.4461 53.8207 52.4313 53.8044 52.4169L52.4802 53.9157ZM53.0329 54.4373L54.4359 53.0119C54.4258 53.002 54.4157 52.9922 54.4055 52.9826L53.0329 54.4373ZM53.5749 54.9707L52.172 56.3961C52.7465 56.9615 53.6042 57.1268 54.3476 56.8154C55.0911 56.504 55.5749 55.7767 55.5749 54.9707H53.5749ZM53.5749 54.9588H55.5749C55.5749 54.8547 55.5668 54.7508 55.5506 54.648L53.5749 54.9588ZM53.471 54.298L55.4467 53.9872C55.4411 53.9519 55.4346 53.9168 55.4272 53.8818L53.471 54.298ZM53.3329 53.649L55.2891 53.2329C55.2839 53.2081 55.2781 53.1834 55.2719 53.1588L53.3329 53.649ZM53.1716 53.0109L55.1106 52.5207C55.1023 52.4879 55.0932 52.4555 55.0833 52.4232L53.1716 53.0109ZM52.9756 52.3732L54.8873 51.7856C54.8841 51.7753 54.8809 51.765 54.8775 51.7547L52.9756 52.3732ZM52.7682 51.7356L54.6702 51.1171C54.6576 51.0785 54.6439 51.0404 54.6291 51.0026L52.7682 51.7356ZM52.5262 51.1212L54.387 50.3882C54.3775 50.3639 54.3674 50.3398 54.3569 50.3159L52.5262 51.1212ZM52.2609 50.5181L54.0916 49.7128C54.0791 49.6845 54.066 49.6565 54.0523 49.6288L52.2609 50.5181ZM51.9615 49.9151L53.7529 49.0257C53.7434 49.0067 53.7337 48.9878 53.7236 48.969L51.9615 49.9151ZM51.6502 49.3352L53.4123 48.3892C53.3951 48.3572 53.3771 48.3257 53.3582 48.2948L51.6502 49.3352ZM51.3042 48.7672L53.0123 47.7268C53.0043 47.7138 52.9963 47.7009 52.988 47.688L51.3042 48.7672ZM50.9474 48.2106L52.6313 47.1314C52.6119 47.1012 52.5918 47.0715 52.5708 47.0424L50.9474 48.2106ZM50.5555 47.6659L52.1788 46.4977C52.1656 46.4793 52.152 46.4611 52.1381 46.4431L50.5555 47.6659ZM50.1521 47.1438L51.7348 45.921C51.709 45.8876 51.6821 45.8551 51.6543 45.8234L50.1521 47.1438ZM49.7141 46.6454L51.2163 45.3251C51.2056 45.313 51.1949 45.301 51.1839 45.2891L49.7141 46.6454ZM49.2647 46.1585L50.7346 44.8022C50.7121 44.7778 50.6891 44.7541 50.6654 44.7309L49.2647 46.1585ZM48.7921 45.6947L50.1928 44.2671C50.1813 44.2558 50.1696 44.2446 50.1578 44.2336L48.7921 45.6947ZM48.308 45.2422L49.6738 43.7812C49.6432 43.7526 49.6118 43.725 49.5795 43.6984L48.308 45.2422ZM47.8013 44.8249L49.0727 43.2811C49.0546 43.2661 49.0362 43.2515 49.0175 43.2372L47.8013 44.8249ZM47.2712 44.4189L48.4874 42.8312C48.467 42.8155 48.4462 42.8002 48.4251 42.7853L47.2712 44.4189ZM46.7293 44.0361L47.8831 42.4025C47.8617 42.3873 47.8399 42.3726 47.8179 42.3583L46.7293 44.0361ZM46.1759 43.6771L47.2645 41.9993C47.2299 41.9768 47.1947 41.9555 47.1588 41.9352L46.1759 43.6771ZM45.5999 43.352L46.5827 41.6102C46.5688 41.6023 46.5548 41.5947 46.5407 41.5871L45.5999 43.352ZM45.0125 43.0389L45.9533 41.274C45.9207 41.2566 45.8876 41.2402 45.8541 41.2246L45.0125 43.0389ZM44.4131 42.7609L45.2548 40.9466C45.2453 40.9422 45.2358 40.9379 45.2263 40.9336L44.4131 42.7609ZM43.8138 42.4941L44.6269 40.6669C44.5893 40.6501 44.5511 40.6346 44.5125 40.6202L43.8138 42.4941ZM43.1911 42.262L43.8899 40.388C43.8553 40.3751 43.8204 40.3632 43.7852 40.3523L43.1911 42.262ZM42.5577 42.0649L43.1518 40.1552C43.1407 40.1517 43.1296 40.1484 43.1184 40.1451L42.5577 42.0649ZM41.9237 41.8797L42.4844 39.9599C42.4493 39.9497 42.4139 39.9404 42.3783 39.9321L41.9237 41.8797ZM41.2783 41.7291L41.7329 39.7815C41.7111 39.7764 41.6893 39.7717 41.6674 39.7673L41.2783 41.7291ZM40.633 41.6011L41.022 39.6393C40.9858 39.6322 40.9495 39.626 40.913 39.6208L40.633 41.6011ZM39.9762 41.5083L40.2563 39.528C40.2327 39.5246 40.209 39.5217 40.1853 39.5192L39.9762 41.5083ZM39.3189 41.4392L39.528 39.4501C39.5054 39.4478 39.4827 39.4458 39.46 39.4442L39.3189 41.4392ZM38.6622 41.3928L38.8033 39.3977C38.7684 39.3953 38.7334 39.3937 38.6984 39.3931L38.6622 41.3928ZM38.0055 41.3809L38.0417 39.3812C38.0176 39.3808 37.9934 39.3808 37.9693 39.3812L38.0055 41.3809ZM37.3488 41.3928L37.3125 39.3931C37.2776 39.3937 37.2427 39.3953 37.2078 39.3977L37.3488 41.3928ZM36.6915 41.4392L36.5505 39.4442C36.5277 39.4458 36.505 39.4478 36.4822 39.4502L36.6915 41.4392ZM36.0347 41.5083L35.8255 39.5192C35.8019 39.5217 35.7782 39.5246 35.7547 39.528L36.0347 41.5083ZM35.378 41.6011L35.098 39.6208C35.0615 39.626 35.0251 39.6322 34.989 39.6393L35.378 41.6011ZM34.7326 41.7291L34.3436 39.7673C34.3217 39.7717 34.2998 39.7764 34.2781 39.7815L34.7326 41.7291ZM34.0873 41.8797L33.6327 39.9321C33.5971 39.9404 33.5617 39.9497 33.5266 39.9599L34.0873 41.8797ZM33.4533 42.0649L32.8926 40.1451C32.8816 40.1483 32.8706 40.1516 32.8597 40.155L33.4533 42.0649ZM32.8193 42.262L32.2256 40.3521C32.1901 40.3632 32.1548 40.3752 32.12 40.3882L32.8193 42.262ZM32.1972 42.4941L31.4979 40.6204C31.4595 40.6347 31.4215 40.6502 31.3841 40.6669L32.1972 42.4941ZM31.5978 42.7609L30.7847 40.9336C30.7752 40.9379 30.7657 40.9422 30.7562 40.9466L31.5978 42.7609ZM30.9985 43.0389L30.1569 41.2246C30.1233 41.2402 30.0903 41.2566 30.0577 41.274L30.9985 43.0389ZM30.4111 43.352L29.4702 41.5871C29.4564 41.5945 29.4426 41.6021 29.429 41.6098L30.4111 43.352ZM29.8345 43.6771L28.8524 41.9348C28.8159 41.9553 28.7802 41.977 28.7451 41.9998L29.8345 43.6771ZM29.2817 44.0361L28.1923 42.3588C28.1706 42.3729 28.1491 42.3875 28.1279 42.4025L29.2817 44.0361ZM28.7397 44.4189L27.5859 42.7853C27.5648 42.8002 27.544 42.8155 27.5235 42.8312L28.7397 44.4189ZM28.2097 44.8249L26.9935 43.2372C26.9751 43.2513 26.957 43.2657 26.9391 43.2804L28.2097 44.8249ZM27.7024 45.2422L26.4318 43.6977C26.3992 43.7245 26.3674 43.7523 26.3366 43.7812L27.7024 45.2422ZM27.2183 45.6947L25.8526 44.2336C25.8405 44.2449 25.8286 44.2564 25.8168 44.268L27.2183 45.6947ZM26.7463 46.1585L25.3447 44.7317C25.3213 44.7546 25.2986 44.7781 25.2764 44.8022L26.7463 46.1585ZM26.2969 46.6454L24.827 45.2891C24.8161 45.301 24.8053 45.313 24.7947 45.3251L26.2969 46.6454ZM25.8589 47.1438L24.3567 45.8234C24.3288 45.8551 24.302 45.8876 24.2762 45.921L25.8589 47.1438ZM25.4555 47.6659L23.8728 46.4431C23.859 46.4611 23.8454 46.4793 23.8321 46.4977L25.4555 47.6659ZM25.0635 48.2106L23.4401 47.0424C23.4195 47.0712 23.3996 47.1004 23.3805 47.1302L25.0635 48.2106ZM24.7062 48.7672L23.0231 47.6868C23.0144 47.7004 23.0058 47.7142 22.9974 47.728L24.7062 48.7672ZM24.3608 49.3352L22.652 48.296C22.6334 48.3266 22.6156 48.3576 22.5987 48.3892L24.3608 49.3352ZM24.0495 49.9151L22.2874 48.969C22.2773 48.9878 22.2675 49.0067 22.2581 49.0257L24.0495 49.9151ZM23.7501 50.5181L21.9587 49.6288C21.9449 49.6565 21.9318 49.6845 21.9194 49.7128L23.7501 50.5181ZM23.4848 51.1212L21.6541 50.3159C21.6436 50.3398 21.6335 50.3639 21.6239 50.3882L23.4848 51.1212ZM23.2428 51.7356L21.3819 51.0026C21.3671 51.0404 21.3533 51.0785 21.3408 51.1171L23.2428 51.7356ZM23.0354 52.3732L21.1334 51.7547C21.1301 51.765 21.1269 51.7753 21.1237 51.7856L23.0354 52.3732ZM22.8394 53.0109L20.9277 52.4232C20.9178 52.4555 20.9087 52.4879 20.9004 52.5206L22.8394 53.0109ZM22.6781 53.649L20.7391 53.1588C20.7329 53.1834 20.7271 53.2081 20.7218 53.2329L22.6781 53.649ZM22.54 54.298L20.5838 53.8818C20.5764 53.9168 20.5699 53.9519 20.5643 53.9872L22.54 54.298ZM23.8115 56.4026L24.9048 55.3691L22.1568 52.4624L21.0635 53.496L23.8115 56.4026ZM24.855 55.4146L25.4196 54.9157L22.7713 51.918L22.2066 52.4169L24.855 55.4146ZM25.3524 54.9725L25.9404 54.4974L23.4265 51.3861L22.8385 51.8612L25.3524 54.9725ZM25.8885 54.538L26.4878 54.0856L24.0778 50.8931L23.4785 51.3455L25.8885 54.538ZM26.4387 54.1215L27.0608 53.6809L24.749 50.4166L24.1269 50.8572L26.4387 54.1215ZM26.9835 53.733L27.6175 53.327L25.4603 49.9585L24.8263 50.3645L26.9835 53.733ZM27.5813 53.3496L28.2266 52.9555L26.1419 49.5418L25.4965 49.9359L27.5813 53.3496ZM28.155 52.9972L28.8231 52.6263L26.8816 49.1291L26.2135 49.5L28.155 52.9972ZM28.7511 52.6644L29.4198 52.328L27.6222 48.7547L26.9536 49.091L28.7511 52.6644ZM29.3823 52.3464L30.0623 52.0219L28.3397 48.4118L27.6597 48.7363L29.3823 52.3464ZM29.9903 52.0546L30.693 51.7528L29.1145 48.0774L28.4118 48.3792L29.9903 52.0546ZM30.6134 51.7849L31.3162 51.5182L29.8968 47.7785L29.1941 48.0452L30.6134 51.7849ZM31.2515 51.5415L31.9662 51.298L30.6762 47.5117L29.9615 47.7552L31.2515 51.5415ZM31.9018 51.3187L32.6279 51.0984L31.4666 47.2707L30.7405 47.491L31.9018 51.3187ZM32.5711 51.1148L33.2971 50.9177L32.2494 47.0574L31.5233 47.2544L32.5711 51.1148ZM33.2322 50.9342L33.9696 50.7603L33.0517 46.867L32.3143 47.0409L33.2322 50.9342ZM33.9106 50.7733L34.6486 50.6226L33.8486 46.7035L33.1107 46.8541L33.9106 50.7733ZM34.555 50.6394L35.3038 50.5234L34.691 46.5706L33.9422 46.6867L34.555 50.6394ZM35.2434 50.5318L35.9927 50.4389L35.5007 46.4693L34.7514 46.5622L35.2434 50.5318ZM35.9005 50.4482L36.6493 50.3904L36.3417 46.4023L35.5929 46.46L35.9005 50.4482ZM36.6192 50.3925L37.3685 50.3461L37.1211 46.3537L36.3718 46.4002L36.6192 50.3925ZM37.2761 50.3497L38.0367 50.3378L37.9742 46.3383L37.2135 46.3502L37.2761 50.3497ZM37.9742 50.3378L38.7349 50.3497L38.7974 46.3502L38.0367 46.3383L37.9742 50.3378ZM38.6424 50.3461L39.3911 50.3925L39.6387 46.4002L38.89 46.3537L38.6424 50.3461ZM39.3612 50.3904L40.1106 50.4482L40.418 46.46L39.6686 46.4023L39.3612 50.3904ZM40.0181 50.4389L40.7669 50.5318L41.2592 46.5622L40.5104 46.4693L40.0181 50.4389ZM40.7068 50.5234L41.4562 50.6395L42.0685 46.6866L41.3192 46.5705L40.7068 50.5234ZM41.3621 50.6226L42.0995 50.7732L42.9 46.8541L42.1626 46.7035L41.3621 50.6226ZM42.0412 50.7604L42.7791 50.9342L43.6963 47.0408L42.9583 46.867L42.0412 50.7604ZM42.7134 50.9176L43.4389 51.1146L44.4874 47.2545L43.762 47.0575L42.7134 50.9176ZM43.3825 51.0984L44.1086 51.3187L45.2699 47.491L44.5438 47.2707L43.3825 51.0984ZM44.0442 51.298L44.7589 51.5415L46.0489 47.7552L45.3342 47.5117L44.0442 51.298ZM44.6947 51.5184L45.398 51.7851L46.8164 48.045L46.1131 47.7783L44.6947 51.5184ZM45.3179 51.7528L46.0207 52.0546L47.5992 48.3792L46.8965 48.0774L45.3179 51.7528ZM45.9487 52.0219L46.6287 52.3464L48.3512 48.7363L47.6712 48.4118L45.9487 52.0219ZM46.5912 52.328L47.2598 52.6644L49.0574 49.091L48.3887 48.7547L46.5912 52.328ZM47.1879 52.6263L47.8559 52.9972L49.7975 49.5L49.1294 49.1291L47.1879 52.6263ZM47.7843 52.9555L48.4297 53.3496L50.5145 49.9359L49.8691 49.5418L47.7843 52.9555ZM48.3935 53.327L49.0275 53.733L51.1847 50.3645L50.5507 49.9585L48.3935 53.327ZM48.9502 53.6809L49.5723 54.1215L51.884 50.8572L51.262 50.4166L48.9502 53.6809ZM49.5232 54.0856L50.1225 54.538L52.5325 51.3455L51.9331 50.8931L49.5232 54.0856ZM50.0705 54.4974L50.6585 54.9725L53.1725 51.8612L52.5845 51.3861L50.0705 54.4974ZM50.5913 54.9157L51.156 55.4146L53.8044 52.4169L53.2397 51.918L50.5913 54.9157ZM51.1077 55.3705L51.6604 55.892L54.4055 52.9826L53.8527 52.461L51.1077 55.3705ZM51.63 55.8627L52.172 56.3961L54.9778 53.5453L54.4359 53.0119L51.63 55.8627ZM55.5749 54.9707V54.9588H51.5749V54.9707H55.5749ZM55.5506 54.648L55.4467 53.9872L51.4953 54.6088L51.5992 55.2696L55.5506 54.648ZM55.4272 53.8818L55.2891 53.2329L51.3767 54.0652L51.5147 54.7141L55.4272 53.8818ZM55.2719 53.1588L55.1106 52.5207L51.2326 53.501L51.3939 54.1392L55.2719 53.1588ZM55.0833 52.4232L54.8873 51.7856L51.0638 52.9609L51.2598 53.5985L55.0833 52.4232ZM54.8775 51.7547L54.6702 51.1171L50.8663 52.3541L51.0736 52.9917L54.8775 51.7547ZM54.6291 51.0026L54.387 50.3882L50.6654 51.8542L50.9074 52.4686L54.6291 51.0026ZM54.3569 50.3159L54.0916 49.7128L50.4302 51.3235L50.6955 51.9266L54.3569 50.3159ZM54.0523 49.6288L53.7529 49.0257L50.1701 50.8044L50.4695 51.4075L54.0523 49.6288ZM53.7236 48.969L53.4123 48.3892L49.8881 50.2813L50.1994 50.8611L53.7236 48.969ZM53.3582 48.2948L53.0123 47.7268L49.5962 49.8077L49.9421 50.3757L53.3582 48.2948ZM52.988 47.688L52.6313 47.1314L49.2636 49.2898L49.6204 49.8465L52.988 47.688ZM52.5708 47.0424L52.1788 46.4977L48.9321 48.834L49.3241 49.3788L52.5708 47.0424ZM52.1381 46.4431L51.7348 45.921L48.5694 48.3665L48.9728 48.8886L52.1381 46.4431ZM51.6543 45.8234L51.2163 45.3251L48.2119 47.9658L48.6499 48.4642L51.6543 45.8234ZM51.1839 45.2891L50.7346 44.8022L47.7949 47.5148L48.2442 48.0017L51.1839 45.2891ZM50.6654 44.7309L50.1928 44.2671L47.3913 47.1223L47.864 47.586L50.6654 44.7309ZM50.1578 44.2336L49.6738 43.7812L46.9423 46.7033L47.4263 47.1558L50.1578 44.2336ZM49.5795 43.6984L49.0727 43.2811L46.5298 46.3687L47.0366 46.7861L49.5795 43.6984ZM49.0175 43.2372L48.4874 42.8312L46.055 46.0066L46.5851 46.4126L49.0175 43.2372ZM48.4251 42.7853L47.8831 42.4025L45.5754 45.6697L46.1174 46.0525L48.4251 42.7853ZM47.8179 42.3583L47.2645 41.9993L45.0874 45.3549L45.6407 45.7139L47.8179 42.3583ZM47.1588 41.9352L46.5827 41.6102L44.6171 45.0939L45.1931 45.4189L47.1588 41.9352ZM46.5407 41.5871L45.9533 41.274L44.0716 44.8038L44.6591 45.1169L46.5407 41.5871ZM45.8541 41.2246L45.2548 40.9466L43.5715 44.5751L44.1708 44.8532L45.8541 41.2246ZM45.2263 40.9336L44.6269 40.6669L43.0006 44.3214L43.6 44.5881L45.2263 40.9336ZM44.5125 40.6202L43.8899 40.388L42.4924 44.1359L43.115 44.3681L44.5125 40.6202ZM43.7852 40.3523L43.1518 40.1552L41.9636 43.9746L42.597 44.1717L43.7852 40.3523ZM43.1184 40.1451L42.4844 39.9599L41.363 43.7995L41.997 43.9847L43.1184 40.1451ZM42.3783 39.9321L41.7329 39.7815L40.8238 43.6768L41.4691 43.8274L42.3783 39.9321ZM41.6674 39.7673L41.022 39.6393L40.2439 43.5629L40.8893 43.6909L41.6674 39.7673ZM40.913 39.6208L40.2563 39.528L39.6962 43.4886L40.3529 43.5814L40.913 39.6208ZM40.1853 39.5192L39.528 39.4501L39.1099 43.4282L39.7672 43.4973L40.1853 39.5192ZM39.46 39.4442L38.8033 39.3977L38.5212 43.3878L39.1779 43.4342L39.46 39.4442ZM38.6984 39.3931L38.0417 39.3812L37.9693 43.3805L38.626 43.3924L38.6984 39.3931ZM37.9693 39.3812L37.3125 39.3931L37.385 43.3924L38.0417 43.3805L37.9693 39.3812ZM37.2078 39.3977L36.5505 39.4442L36.8324 43.4342L37.4897 43.3878L37.2078 39.3977ZM36.4822 39.4502L35.8255 39.5192L36.244 43.4973L36.9007 43.4282L36.4822 39.4502ZM35.7547 39.528L35.098 39.6208L35.658 43.5814L36.3148 43.4886L35.7547 39.528ZM34.989 39.6393L34.3436 39.7673L35.1217 43.6909L35.767 43.5629L34.989 39.6393ZM34.2781 39.7815L33.6327 39.9321L34.5419 43.8274L35.1872 43.6768L34.2781 39.7815ZM33.5266 39.9599L32.8926 40.1451L34.014 43.9847L34.648 43.7995L33.5266 39.9599ZM32.8597 40.155L32.2256 40.3521L33.4129 44.1718L34.0469 43.9748L32.8597 40.155ZM32.12 40.3882L31.4979 40.6204L32.8965 44.3679L33.5186 44.1357L32.12 40.3882ZM31.3841 40.6669L30.7847 40.9336L32.411 44.5881L33.0103 44.3214L31.3841 40.6669ZM30.7562 40.9466L30.1569 41.2246L31.8402 44.8532L32.4395 44.5751L30.7562 40.9466ZM30.0577 41.274L29.4702 41.5871L31.3519 45.1169L31.9393 44.8038L30.0577 41.274ZM29.429 41.6098L28.8524 41.9348L30.8166 45.4193L31.3932 45.0943L29.429 41.6098ZM28.7451 41.9998L28.1923 42.3588L30.3711 45.7134L30.9238 45.3543L28.7451 41.9998ZM28.1279 42.4025L27.5859 42.7853L29.8935 46.0525L30.4355 45.6697L28.1279 42.4025ZM27.5235 42.8312L26.9935 43.2372L29.4259 46.4126L29.9559 46.0066L27.5235 42.8312ZM26.9391 43.2804L26.4318 43.6977L28.973 46.7868L29.4803 46.3694L26.9391 43.2804ZM26.3366 43.7812L25.8526 44.2336L28.5841 47.1557L29.0681 46.7033L26.3366 43.7812ZM25.8168 44.268L25.3447 44.7317L28.1478 47.5852L28.6199 47.1214L25.8168 44.268ZM25.2764 44.8022L24.827 45.2891L27.7667 48.0017L28.2161 47.5148L25.2764 44.8022ZM24.7947 45.3251L24.3567 45.8234L27.3611 48.4641L27.7991 47.9658L24.7947 45.3251ZM24.2762 45.921L23.8728 46.4431L27.0382 48.8886L27.4416 48.3665L24.2762 45.921ZM23.8321 46.4977L23.4401 47.0424L26.6869 49.3788L27.0789 48.834L23.8321 46.4977ZM23.3805 47.1302L23.0231 47.6868L26.3892 49.8477L26.7466 49.291L23.3805 47.1302ZM22.9974 47.728L22.652 48.296L26.0696 50.3744L26.415 49.8065L22.9974 47.728ZM22.5987 48.3892L22.2874 48.969L25.8116 50.8611L26.1229 50.2813L22.5987 48.3892ZM22.2581 49.0257L21.9587 49.6288L25.5415 51.4075L25.8409 50.8044L22.2581 49.0257ZM21.9194 49.7128L21.6541 50.3159L25.3155 51.9266L25.5808 51.3235L21.9194 49.7128ZM21.6239 50.3882L21.3819 51.0026L25.1036 52.4686L25.3456 51.8542L21.6239 50.3882ZM21.3408 51.1171L21.1334 51.7547L24.9374 52.9918L25.1447 52.3541L21.3408 51.1171ZM21.1237 51.7856L20.9277 52.4232L24.7511 53.5985L24.9471 52.9609L21.1237 51.7856ZM20.9004 52.5206L20.7391 53.1588L24.6171 54.1392L24.7784 53.5011L20.9004 52.5206ZM20.7218 53.2329L20.5838 53.8818L24.4962 54.7141L24.6343 54.0652L20.7218 53.2329ZM20.5643 53.9872L20.4618 54.6385L24.4132 55.2601L24.5157 54.6088L20.5643 53.9872Z" fill="#B91C1C" mask="url(#path-1-outside-1_1293_810)"/>
<path d="M39.574 1.90306C39.5265 1.41474 39.1317 1.03305 38.642 1.002C38.1524 0.970959 37.7125 1.29973 37.6037 1.77814L36.889 4.91928L36.8887 4.92062L33.0252 21.7925C32.9237 22.2357 33.134 22.6917 33.5371 22.9021C33.9402 23.1126 34.4345 23.0247 34.7402 22.6881L35.6111 21.7294L36.5162 31.9903L36.5165 31.994L36.8936 36.0916C36.9397 36.5924 37.3505 36.9811 37.8531 36.9993C38.3557 37.0176 38.7936 36.6598 38.8759 36.1636L42.687 13.1867L42.6877 13.1825L42.9858 11.4312C43.0603 10.9939 42.8377 10.5598 42.4391 10.365C42.0405 10.1702 41.5613 10.2612 41.2619 10.5887L40.5098 11.4115L39.8863 5.10955L39.8862 5.10805L39.574 1.90306Z" fill="#FDE047" stroke="#B91C1C" stroke-width="2" stroke-linejoin="round"/>
<path d="M44.7938 53.9117C44.6318 53.5547 44.276 53.3253 43.884 53.325C43.4919 53.3248 43.1358 53.5536 42.9732 53.9104L41.5862 56.9546L38.8126 53.4491C38.6234 53.2101 38.3356 53.0704 38.0307 53.0697C37.7259 53.0689 37.4374 53.2073 37.2471 53.4454L34.5403 56.8333L33.0997 53.5937C32.9398 53.234 32.5836 53.0016 32.1899 53C31.7962 52.9985 31.4383 53.2281 31.2755 53.5865L23.5192 70.6663C23.3109 71.1249 23.4763 71.6668 23.9051 71.9311L25.0345 72.627C25.4643 72.8919 26.0241 72.7948 26.3397 72.4007L33.7133 63.1912L37.1028 70.8361C37.2624 71.1961 37.6184 71.4289 38.0122 71.4308C38.406 71.4327 38.7642 71.2033 38.9273 70.8449L42.3642 63.2893L49.6801 72.5132C49.9976 72.9135 50.5657 73.0101 50.9977 72.7372L52.0805 72.0532C52.5027 71.7864 52.6634 71.2491 52.457 70.7944L44.7938 53.9117ZM40.0364 60.3686L38.0413 64.7447L36.0549 60.2617L38.0143 57.8185L40.0364 60.3686ZM32.1893 59.7519L32.0668 59.9052L32.1631 59.6927L32.1893 59.7519Z" fill="#FDE047" stroke="#B91C1C" stroke-width="2" stroke-linejoin="round"/>
<path d="M74.8081 16.589C75.0979 16.1915 75.0555 15.6422 74.7081 15.2939C74.3607 14.9455 73.8116 14.9016 73.4132 15.1902L70.7886 17.092L70.7884 17.0922L56.7547 27.2685C56.3841 27.5373 56.2433 28.0234 56.413 28.4487C56.5827 28.8739 57.0194 29.1296 57.4733 29.0694L58.6778 28.9096L52.6267 37.1062L52.6261 37.107L50.1949 40.4068C49.8959 40.8127 49.9457 41.3776 50.3111 41.7249C50.6766 42.0722 51.2433 42.0931 51.6334 41.7738L69.681 27.0005L69.6834 26.9985L71.0594 25.865C71.4042 25.5809 71.5188 25.1026 71.3401 24.6931C71.1614 24.2837 70.7327 24.0424 70.29 24.1021L69.2503 24.2423L72.9172 19.1834L72.9187 19.1812L74.8081 16.589Z" fill="#FDE047" stroke="#B91C1C" stroke-width="2" stroke-linejoin="round"/>
<path d="M2.58685 15.1903C2.18851 14.9016 1.63935 14.9455 1.29195 15.2938C0.944544 15.6422 0.902105 16.1914 1.19188 16.589L3.08126 19.1812L3.08281 19.1834L6.74973 24.2423L5.70932 24.1021C5.26653 24.0424 4.83789 24.2837 4.65922 24.6933C4.48054 25.1028 4.59521 25.5811 4.94012 25.8651L6.31678 26.9987L6.31902 27.0005L24.3666 41.7738C24.7567 42.0931 25.3234 42.0722 25.6889 41.7249C26.0543 41.3776 26.1041 40.8127 25.8051 40.4068L23.3739 37.107L23.3733 37.1062L17.3216 28.9096L18.5267 29.0694C18.9806 29.1296 19.4174 28.8739 19.587 28.4486C19.7567 28.0234 19.6159 27.5372 19.2452 27.2685L5.21099 17.0922L5.21082 17.0921L2.58685 15.1903Z" fill="#FDE047" stroke="#B91C1C" stroke-width="2" stroke-linejoin="round"/>
</svg>
